<?xml version="1.0" encoding="UTF-8" standalone="no"?>
<!-- Created with Inkscape (http://www.inkscape.org/) -->

<svg
   xmlns:dc="http://purl.org/dc/elements/1.1/"
   xmlns:cc="http://creativecommons.org/ns#"
   xmlns:rdf="http://www.w3.org/1999/02/22-rdf-syntax-ns#"
   xmlns:svg="http://www.w3.org/2000/svg"
   xmlns="http://www.w3.org/2000/svg"
   xmlns:sodipodi="http://sodipodi.sourceforge.net/DTD/sodipodi-0.dtd"
   xmlns:inkscape="http://www.inkscape.org/namespaces/inkscape"
   width="800"
   height="360"
   id="svg3530"
   version="1.1"
   inkscape:version="0.48.2 r9819"
   sodipodi:docname="filter-placements.svg">
  <defs
     id="defs3532" />
  <sodipodi:namedview
     id="base"
     pagecolor="#ffffff"
     bordercolor="#666666"
     borderopacity="1.0"
     inkscape:pageopacity="0.0"
     inkscape:pageshadow="2"
     inkscape:zoom="1.63625"
     inkscape:cx="400"
     inkscape:cy="180"
     inkscape:document-units="px"
     inkscape:current-layer="layer1"
     showgrid="false"
     fit-margin-top="0"
     fit-margin-left="0"
     fit-margin-right="0"
     fit-margin-bottom="0"
     inkscape:window-width="1440"
     inkscape:window-height="852"
     inkscape:window-x="0"
     inkscape:window-y="0"
     inkscape:window-maximized="1" />
  <metadata
     id="metadata3535">
    <rdf:RDF>
      <cc:Work
         rdf:about="">
        <dc:format>image/svg+xml</dc:format>
        <dc:type
           rdf:resource="http://purl.org/dc/dcmitype/StillImage" />
        <dc:title />
      </cc:Work>
    </rdf:RDF>
  </metadata>
  <g
     inkscape:label="Layer 1"
     inkscape:groupmode="layer"
     id="layer1"
     transform="translate(-43.792161,37.027723)">
    <path
       sodipodi:type="inkscape:offset"
       inkscape:radius="0"
       inkscape:original="M 350.28125 30.46875 C 343.51642 31.701756 344.00363 41.170566 345.46875 46.25 C 353.38029 68.863212 357.76225 92.72713 367.1875 114.8125 C 371.05943 120.77226 380.16506 118.42428 386.15625 117.84375 C 395.8452 116.65603 405.70843 117.92566 415.46875 116.375 C 429.90944 115.36205 445.14518 114.11755 458.78125 119.71875 C 480.74102 125.79845 504.07097 121.25432 526.34375 120.9375 C 534.16532 116.94839 534.53953 106.23506 537.71875 98.96875 C 545.08827 82.893504 552.52109 66.342416 557.75 49.40625 C 554.9556 40.118254 543.75669 40.692562 535.96875 41.25 C 527.49339 41.450139 519.25146 39.354562 510.71875 40.375 C 480.45085 41.643508 449.89924 45.64878 419.78125 40.75 C 398.56675 38.542237 377.59464 33.860243 356.46875 30.9375 C 354.29532 31.40546 352.42055 30.280428 350.28125 30.46875 z M 355.84375 36.21875 C 383.69456 40.341297 411.37427 45.637313 439.625 45.78125 C 475.56987 47.041419 511.69698 43.713911 547.53125 46.84375 C 554.49172 49.209138 551.53627 58.227299 549.46875 63.09375 C 541.68709 78.494737 538.40315 96.093123 528.5 110.46875 C 524.51925 116.47318 516.42845 119.51817 509.71875 116.34375 C 488.76242 117.59881 466.54994 119.33372 447 110.40625 C 426.22149 109.32254 405.27067 111.83563 384.8125 114.59375 C 377.19886 118.58572 369.62558 111.57718 367.125 104.6875 C 359.37627 84.425944 355.39458 62.826009 347.96875 42.375 C 346.25701 37.455162 352.02628 35.699301 355.84375 36.21875 z "
       style="fill:#b3b3b3"
       id="path4891"
       d="m 350.28125,30.46875 c -6.76483,1.233006 -6.27762,10.701816 -4.8125,15.78125 7.91154,22.613212 12.2935,46.47713 21.71875,68.5625 3.87193,5.95976 12.97756,3.61178 18.96875,3.03125 9.68895,-1.18772 19.55218,0.0819 29.3125,-1.46875 14.44069,-1.01295 29.67643,-2.25745 43.3125,3.34375 21.95977,6.0797 45.28972,1.53557 67.5625,1.21875 7.82157,-3.98911 8.19578,-14.70244 11.375,-21.96875 7.36952,-16.075246 14.80234,-32.626334 20.03125,-49.5625 -2.7944,-9.287996 -13.99331,-8.713688 -21.78125,-8.15625 -8.47536,0.200139 -16.71729,-1.895438 -25.25,-0.875 -30.2679,1.268508 -60.81951,5.27378 -90.9375,0.375 -21.2145,-2.207763 -42.18661,-6.889757 -63.3125,-9.8125 -2.17343,0.46796 -4.0482,-0.657072 -6.1875,-0.46875 z m 5.5625,5.75 c 27.85081,4.122547 55.53052,9.418563 83.78125,9.5625 35.94487,1.260169 72.07198,-2.067339 107.90625,1.0625 6.96047,2.365388 4.00502,11.383549 1.9375,16.25 -7.78166,15.400987 -11.0656,32.999373 -20.96875,47.375 -3.98075,6.00443 -12.07155,9.04942 -18.78125,5.875 -20.95633,1.25506 -43.16881,2.98997 -62.71875,-5.9375 -20.77851,-1.08371 -41.72933,1.42938 -62.1875,4.1875 -7.61364,3.99197 -15.18692,-3.01657 -17.6875,-9.90625 -7.74873,-20.261556 -11.73042,-41.861491 -19.15625,-62.3125 -1.71174,-4.919838 4.05753,-6.675699 7.875,-6.15625 z" />
    <path
       style="fill:#00aeef;fill-opacity:1"
       d="m 512.74565,7.263585 c 3.99614,-0.67058 3.43316,-5.32379 2.1223,-8.08119 -2.03445,-5.19249 -4.77365,-11.031 -10.36746,-13.10509 -2.76369,-2.08127 -5.59949,3.89684 -7.19665,-0.74418 -2.39767,-3.64872 -7.485,-1.45169 -10.28856,0.51519 -3.19281,2.17966 -6.27177,6.56779 -3.8743,10.37362 1.94325,4.29306 4.84419,8.40116 9.32527,10.30059 5.6809,2.4822 12.15921,2.06442 18.15503,1.18096 0.71191,-0.12748 1.42044,-0.27392 2.12437,-0.4399 z m -19.0149,4.13928 c -6.32502,-2.14833 -12.27841,-6.6305 -14.26855,-13.25622 -1.86075,-4.29866 -1.30721,-9.56711 2.06458,-12.95499 5.45573,-6.28033 14.93162,-6.62299 22.2833,-3.96444 5.22249,1.66128 9.24886,5.73277 11.61996,10.5793 2.18995,3.98515 4.36029,8.3186 4.41594,12.94696 -0.75493,4.96825 -6.13551,7.18118 -10.62536,7.35201 -5.12734,0.68984 -10.56464,1.30886 -15.48987,-0.70262 z"
       id="path3185"
       inkscape:connector-curvature="0" />
    <path
       style="fill:#ff0000"
       d="m 307.90975,7.025482 c 2.93311,-2.21556 0.77785,-6.17566 7.4e-4,-8.92891 -1.32671,-4.28917 -4.91416,-7.14548 -8.74265,-9.13709 -3.53777,-2.26391 -7.83575,-3.64048 -12.02283,-2.56251 -4.4987,0.56847 -10.33689,0.78482 -12.6486,5.3732 -2.88819,5.99952 1.4426,13.07869 7.3168,15.16716 6.93226,2.44591 14.58526,3.2144 21.83761,1.88885 1.52794,-0.27989 3.08349,-0.72829 4.25893,-1.8007 z m -18.2895,6.21677 c -7.00547,-1.48495 -14.52358,-4.25293 -18.72343,-10.37982 -1.26182,-3.87591 -1.72978,-8.38396 -0.54504,-12.30207 3.21032,-5.89466 10.42904,-7.48153 16.54772,-8.41494 5.17842,-0.82595 10.60459,0.25015 14.85224,3.40256 5.69541,4.11078 10.61834,10.18435 11.62224,17.31058 0.73662,4.25785 -2.35295,8.24893 -6.46749,9.21522 -5.57026,1.56977 -11.55188,1.56541 -17.28624,1.16847 z"
       id="path3177"
       inkscape:connector-curvature="0" />
    <path
       style="fill:#4d4d4d"
       d="m 616.47957,5.882664 c 4.27077,-3.53096 -0.002,-10.05916 -3.9626,-11.90828 -4.97609,-3.13135 -10.53265,-4.77287 -16.29535,-5.26177 -6.28014,-3.33631 -12.53348,4.04987 -9.16131,9.94356 3.68125,7.91582 13.48816,9.63512 21.33103,8.65613 2.71383,-0.32881 5.5023,-0.47186 8.08823,-1.42964 z m -19.6797,4.70353 c -7.32055,-1.96385 -15.22216,-7.98599 -14.57833,-16.33987 1.17263,-7.87988 9.27801,-13.08437 16.76644,-13.63493 6.77852,0.68481 11.38847,6.49717 16.38078,10.52314 3.70397,3.77529 10.24295,9.10057 6.62043,14.92 -4.10533,5.51819 -12.03446,5.45652 -18.27121,5.53458 -2.32171,-0.14657 -4.67093,-0.37504 -6.91811,-1.00292 z"
       id="path3173"
       inkscape:connector-curvature="0" />
    <path
       style="fill:#00aeef;fill-opacity:1"
       d="m 411.28227,9.189423 c 0.69313,-6.62811 0.6859,-13.29955 0.86641,-19.95399 -9.27212,-0.7466 -18.53742,-1.5823 -27.78853,-2.55642 -0.69227,7.93336 -1.37717,15.87267 -2.4912,23.76041 7.597,0.27087 15.32878,0.0436 22.69092,2.24159 2.66776,0.60253 7.40016,0.53766 6.7224,-3.49159 z m -9.73052,7.14697 c -7.21344,-1.11592 -14.56502,-1.24265 -21.79873,-1.85994 -3.46299,-1.99404 -1.47546,-6.59817 -1.47997,-9.76206 0.593,-5.13281 1.58792,-10.23908 1.59723,-15.42294 -2.35481,-2.27286 -4.28395,-7.05864 0.90993,-6.86072 10.4405,0.48987 20.86314,1.66026 31.33406,1.57953 4.52913,-0.40324 4.46694,4.89952 4.26151,8.07196 -0.1757,8.02523 -0.59096,16.10217 -2.12959,23.99174 -1.88567,3.14506 -5.79469,0.79898 -8.62798,0.82695 -1.35531,-0.18939 -2.70938,-0.38799 -4.06646,-0.56452 z"
       id="path3153"
       inkscape:connector-curvature="0" />
    <path
       style="fill:#00aeef;fill-opacity:1"
       d="m 655.78747,7.159591 c 2.14685,-0.53172 6.10164,2.62318 7,0.2486 0,-8.00424 0,-16.00849 0,-24.01274 -6.90027,0.27038 -13.84371,-0.0215 -20.7064,0.85155 -2.63896,1.83813 -1.21007,5.88069 -2.21148,8.65849 -0.63623,4.73544 -1.32448,9.47907 -1.43201,14.26339 2.21042,2.16625 5.72502,0.32463 8.45984,0.66208 2.95945,-0.26745 5.91618,-0.61539 8.89005,-0.67137 z m -18.75,4.72546 c -3.40652,-0.63877 -3.4735,-4.64697 -2.93195,-7.3282 0.49004,-6.69913 2.0505,-13.33968 1.94497,-20.06481 -1.13949,-1.64009 -4.05738,-4.31037 -0.3363,-5.08304 4.42669,-1.23848 8.87151,1.1467 13.37304,0.47799 5.42262,-0.1572 10.81529,-1.06789 16.24985,-0.83083 2.10818,2.3178 0.73877,5.85436 1.41225,8.67337 0.25574,7.27428 0.74788,14.64267 -0.32255,21.86281 -1.15696,3.83775 -5.5245,2.81261 -8.51357,2.5959 -5.35765,-0.31965 -10.73401,-0.0138 -16.04716,0.65913 -1.65056,0.003 -3.31766,-0.28161 -4.82858,-0.96232 z"
       id="path3149"
       inkscape:connector-curvature="0" />
    <path
       style="fill:#ff0000"
       d="m 464.21035,-2.374709 c 0.094,-3.92564 0.188,-7.85127 0.282,-11.77691 -9.85467,0.1846 -19.70933,0.36921 -29.564,0.55383 -0.39935,6.97818 -0.95004,13.94947 -1.14379,20.93799 4.02533,1.07578 8.28407,0.27284 12.38654,0.914 5.40046,0.56239 10.77733,1.70526 16.22167,1.26651 3.34363,-2.15893 0.91009,-8.14923 1.81758,-11.89542 l 0,0 z m -13.282,15.64532 c -6.57551,-0.73926 -13.20724,-1.35827 -19.82349,-0.83229 -4.20665,-1.46759 -1.45875,-6.73911 -1.47841,-9.97764 0.60859,-4.35607 1.23343,-8.75141 0.96253,-13.16098 -1.66637,-1.74713 -8.70446,-2.22656 -4.09164,-5.43731 4.95306,-1.83521 10.39628,-1.77869 15.62645,-1.96932 7.33237,-0.11701 14.70355,0.2033 21.99248,-0.78463 3.83927,-3.07339 5.95748,2.2567 4.88819,5.49933 -0.12645,8.01211 -0.0825,16.12428 -1.61633,24.01524 -0.48446,5.26236 -6.28046,3.77916 -9.90702,3.3653 -2.18621,-0.22097 -4.36983,-0.46669 -6.55276,-0.7177 z"
       id="path3133"
       inkscape:connector-curvature="0" />
    <path
       style="fill:#4d4d4d"
       d="m 362.17189,10.592717 c -4.10113,-9.20516 -10.50417,-17.48529 -18.43902,-23.66251 -3.41895,1.00348 -4.40175,5.63677 -7.0851,7.98425 -2.92205,3.75971 -6.03543,7.36482 -9.16017,10.95604 1.44074,4.20244 7.99187,2.33055 11.54155,3.91347 7.56736,1.2487 15.12902,2.98479 22.78077,3.42814 1.17523,-0.32448 0.81591,-1.85786 0.36197,-2.61939 z m -11.42028,5.62108 c -9.52069,-1.74039 -19.12588,-3.18504 -28.43588,-5.8938 -3.99315,-2.90212 2.49723,-6.33552 4.04574,-8.86716 4.79709,-5.44656 9.63353,-11.12105 12.62158,-17.784066 -0.18398,-4.0637 3.85218,-6.0971 6.25365,-2.24574 8.29405,8.958916 17.05422,18.026806 21.61904,29.569516 2.5052,3.10242 0.47113,7.8498 -3.85245,6.22338 -4.09832,-0.091 -8.2004,-0.35621 -12.25168,-1.00213 z"
       id="path3121"
       inkscape:connector-curvature="0" />
    <path
       sodipodi:type="inkscape:offset"
       inkscape:radius="0"
       inkscape:original="M 240.9375 -26.6875 C 240.47212 -26.453401 240.17898 -25.898238 240.15625 -24.90625 C 238.74699 -21.01867 236.30036 -17.644 234.1875 -14.125 C 231.04536 -8.20199 227.69255 -2.40634 224.1875 3.3125 C 223.14775 6.2253 217.41026 11.85841 222.6875 13.3125 C 234.44624 15.25416 246.4631 14.85248 258.21875 16.875 C 260.3728 16.96603 264.97564 19.32747 266.15625 16.625 C 265.33315 11.99323 263.54442 7.55984 261.90625 3.15625 C 258.33315 -6.72684 253.77622 -16.60018 246.0625 -23.96875 C 245.17647 -25.283912 242.33363 -27.389797 240.9375 -26.6875 z M 242.96875 -21.125 C 245.15328 -18.50332 247.45303 -15.99235 249.40625 -13.1875 C 253.86149 -6.0417 257.73327 1.62359 259.84375 9.8125 C 259.86584 10.87465 261.26173 13.56232 258.84375 12.59375 C 250.53736 10.87685 241.99024 10.45106 233.53125 9.9375 C 231.0841 9.32955 227.09736 10.66264 225.71875 8.4375 C 231.68013 -1.28197 237.359 -11.19026 242.96875 -21.125 z "
       style="fill:#00aeef;fill-opacity:1"
       id="path4915"
       d="m 240.9375,-26.6875 c -0.46538,0.234099 -0.75852,0.789262 -0.78125,1.78125 -1.40926,3.88758 -3.85589,7.26225 -5.96875,10.78125 -3.14214,5.92301 -6.49495,11.71866 -10,17.4375 -1.03975,2.9128 -6.77724,8.54591 -1.5,10 11.75874,1.94166 23.7756,1.53998 35.53125,3.5625 2.15405,0.09103 6.75689,2.45247 7.9375,-0.25 -0.8231,-4.63177 -2.61183,-9.06516 -4.25,-13.46875 -3.5731,-9.88309 -8.13003,-19.75643 -15.84375,-27.125 -0.88603,-1.315162 -3.72887,-3.421047 -5.125,-2.71875 z m 2.03125,5.5625 c 2.18453,2.62168 4.48428,5.13265 6.4375,7.9375 4.45524,7.1458 8.32702,14.81109 10.4375,23 0.0221,1.06215 1.41798,3.74982 -1,2.78125 -8.30639,-1.7169 -16.85351,-2.14269 -25.3125,-2.65625 -2.44715,-0.60795 -6.43389,0.72514 -7.8125,-1.5 5.96138,-9.71947 11.64025,-19.62776 17.25,-29.5625 z" />
    <path
       style="fill:#00aeef;fill-opacity:1"
       d="m 565.20544,9.52968 c 3.16446,1.33082 5.25534,-2.59536 2.78714,-4.77477 -2.81034,-6.19208 -5.62209,-12.67694 -10.47425,-17.56733 -2.37848,-1.63565 -6.32996,-6.30974 -8.09222,-1.80656 -2.7175,3.84295 -4.82869,8.05728 -7.10221,12.15677 -3.11533,4.11752 -6.51659,8.00873 -9.80026,11.99189 9.83506,0.36057 19.71874,1.33312 29.53096,0.0991 1.04926,-0.0591 2.10002,-0.0893 3.15084,-0.0991 z m -40.3383,4.43097 c 1.6931,-4.47842 5.41039,-7.77041 8.14318,-11.60552 4.36758,-5.35336 8.1149,-11.15992 11.80255,-16.98534 2.26802,-2.40458 3.41044,-5.90835 5.50478,-8.11317 2.96962,0.2926 5.23475,2.716 7.65772,4.27276 6.33101,4.86842 9.65674,12.38651 13.04024,19.3843 1.53506,3.48501 2.97931,7.06418 3.64887,10.81826 -0.88857,4.08538 -7.08355,1.65066 -10.16267,2.63009 -12.79935,0.3696 -25.63986,0.70758 -38.42456,-0.12253 -0.40829,-0.0693 -0.81331,-0.15986 -1.21011,-0.27885 z"
       id="path3109"
       inkscape:connector-curvature="0" />
    <path
       style="fill:#00aeef;fill-opacity:1"
       d="m 454.06872,161.82424 c 3.99614,-0.67058 3.43316,-5.32379 2.1223,-8.08119 -2.03445,-5.19249 -4.77365,-11.031 -10.36746,-13.10509 -2.76369,-2.08127 -5.59949,3.89684 -7.19665,-0.74418 -2.39767,-3.64872 -7.485,-1.45169 -10.28856,0.51519 -3.19281,2.17966 -6.27177,6.56779 -3.8743,10.37362 1.94325,4.29306 4.84419,8.40116 9.32527,10.30059 5.6809,2.4822 12.15921,2.06442 18.15503,1.18096 0.71191,-0.12748 1.42044,-0.27392 2.12437,-0.4399 z m -19.0149,4.13928 c -6.32502,-2.14833 -12.27841,-6.6305 -14.26855,-13.25622 -1.86075,-4.29866 -1.30721,-9.56711 2.06458,-12.95499 5.45573,-6.28033 14.93162,-6.62299 22.2833,-3.96444 5.22249,1.66128 9.24886,5.73277 11.61996,10.5793 2.18995,3.98515 4.36029,8.3186 4.41594,12.94696 -0.75493,4.96825 -6.13551,7.18118 -10.62536,7.35201 -5.12734,0.68984 -10.56464,1.30886 -15.48987,-0.70262 z"
       id="path3185-3"
       inkscape:connector-curvature="0" />
    <path
       style="fill:#00aeef;fill-opacity:1"
       d="m 395.40391,159.09806 c 0.69313,-6.62811 0.6859,-13.29955 0.86641,-19.95399 -9.27212,-0.7466 -18.53742,-1.5823 -27.78853,-2.55642 -0.69227,7.93336 -1.37717,15.87267 -2.4912,23.76041 7.597,0.27087 15.32878,0.0436 22.69092,2.24159 2.66776,0.60253 7.40016,0.53766 6.7224,-3.49159 z m -9.73052,7.14697 c -7.21344,-1.11592 -14.56502,-1.24265 -21.79873,-1.85994 -3.46299,-1.99404 -1.47546,-6.59817 -1.47997,-9.76206 0.593,-5.13281 1.58792,-10.23908 1.59723,-15.42294 -2.35481,-2.27286 -4.28395,-7.05864 0.90993,-6.86072 10.4405,0.48987 20.86314,1.66026 31.33406,1.57953 4.52913,-0.40324 4.46694,4.89952 4.26151,8.07196 -0.1757,8.02523 -0.59096,16.10217 -2.12959,23.99174 -1.88567,3.14506 -5.79469,0.79898 -8.62798,0.82695 -1.35531,-0.18939 -2.70938,-0.38799 -4.06646,-0.56452 z"
       id="path3153-9"
       inkscape:connector-curvature="0" />
    <path
       style="fill:#00aeef;fill-opacity:1"
       d="m 569.19843,162.65065 c 2.14685,-0.53172 6.10164,2.62318 7,0.2486 0,-8.00424 0,-16.00849 0,-24.01274 -6.90027,0.27038 -13.84371,-0.0215 -20.7064,0.85155 -2.63896,1.83813 -1.21007,5.88069 -2.21148,8.65849 -0.63623,4.73544 -1.32448,9.47907 -1.43201,14.26339 2.21042,2.16625 5.72502,0.32463 8.45984,0.66208 2.95945,-0.26745 5.91618,-0.61539 8.89005,-0.67137 z m -18.75,4.72546 c -3.40652,-0.63877 -3.4735,-4.64697 -2.93195,-7.3282 0.49004,-6.69913 2.0505,-13.33968 1.94497,-20.06481 -1.13949,-1.64009 -4.05738,-4.31037 -0.3363,-5.08304 4.42669,-1.23848 8.87151,1.1467 13.37304,0.47799 5.42262,-0.1572 10.81529,-1.06789 16.24985,-0.83083 2.10818,2.3178 0.73877,5.85436 1.41225,8.67337 0.25574,7.27428 0.74788,14.64267 -0.32255,21.86281 -1.15696,3.83775 -5.5245,2.81261 -8.51357,2.5959 -5.35765,-0.31965 -10.73401,-0.0138 -16.04716,0.65913 -1.65056,0.003 -3.31766,-0.28161 -4.82858,-0.96232 z"
       id="path3149-0"
       inkscape:connector-curvature="0" />
    <path
       style="fill:#00aeef;fill-opacity:1"
       d="m 340.7359,162.52172 c -2.11048,-8.18891 -5.97783,-15.84852 -10.43307,-22.99432 -1.95322,-2.80485 -4.253,-5.34069 -6.43753,-7.96237 -5.60975,9.93474 -11.30159,19.83982 -17.26297,29.55929 1.37861,2.22514 5.36962,0.89996 7.81677,1.50791 8.45899,0.51356 16.99779,0.93611 25.30418,2.65301 2.41798,0.96857 1.03471,-1.70137 1.01262,-2.76352 z m -1.6185,7.06733 c -11.75565,-2.02252 -23.77829,-1.6286 -35.53703,-3.57026 -5.27724,-1.45409 0.46392,-7.08851 1.50367,-10.00131 3.50505,-5.71884 6.86023,-11.52298 10.00237,-17.44599 2.11286,-3.519 4.54009,-6.9038 5.94935,-10.79138 0.0909,-3.96795 4.72167,-0.80534 5.90304,0.94821 7.71372,7.36857 12.27195,17.25082 15.84505,27.13391 1.63817,4.40359 3.43691,8.83 4.26001,13.46177 -1.18061,2.70247 -5.77241,0.35608 -7.92646,0.26505 z"
       id="path3113-5"
       inkscape:connector-curvature="0" />
    <path
       style="fill:#00aeef;fill-opacity:1"
       d="m 515.83255,164.09033 c 3.16446,1.33082 5.25534,-2.59536 2.78714,-4.77477 -2.81034,-6.19208 -5.62209,-12.67694 -10.47425,-17.56733 -2.37848,-1.63565 -6.32996,-6.30974 -8.09222,-1.80656 -2.7175,3.84295 -4.82869,8.05728 -7.10221,12.15677 -3.11533,4.11752 -6.51659,8.00873 -9.80026,11.99189 9.83506,0.36057 19.71874,1.33312 29.53096,0.0991 1.04926,-0.0591 2.10002,-0.0893 3.15084,-0.0991 z m -40.3383,4.43097 c 1.6931,-4.47842 5.41039,-7.77041 8.14318,-11.60552 4.36758,-5.35336 8.1149,-11.15992 11.80255,-16.98534 2.26802,-2.40458 3.41044,-5.90835 5.50478,-8.11317 2.96962,0.2926 5.23475,2.716 7.65772,4.27276 6.33101,4.86842 9.65674,12.38651 13.04024,19.3843 1.53506,3.48501 2.97931,7.06418 3.64887,10.81826 -0.88857,4.08538 -7.08355,1.65066 -10.16267,2.63009 -12.79935,0.3696 -25.63986,0.70758 -38.42456,-0.12253 -0.40829,-0.0693 -0.81331,-0.15986 -1.21011,-0.27885 z"
       id="path3109-5"
       inkscape:connector-curvature="0" />
    <path
       style="fill:#000000"
       d="m 445.24616,88.897182 c 1.32305,-4.0353 -8.65078,2.36914 -2.69112,1.20602 0.92896,-0.30251 1.91496,-0.58774 2.69112,-1.20602 z m -3.6801,9.021085 c -5.46068,-1.50702 -5.23907,-10.206235 0.0916,-11.818825 3.03254,-2.53918 9.19236,-0.23686 5.81822,4.0372 -0.46931,3.794995 -9.79689,0.81529 -6.10681,4.939285 3.20304,2.10128 7.53353,0.35264 10.67557,2.47319 -2.6301,1.56218 -7.1301,0.43407 -10.47861,0.36915 l 0,0 z m -15.89372,1.06407 c -2.49865,-2.68843 -2.34637,-6.75842 -2.41586,-10.146545 3.16446,-5.07491 3.17665,2.75647 2.69079,5.075275 0.31702,5.73859 7.91116,3.22363 7.85459,-1.48747 1.016,-1.950685 -1.16398,-8.529805 2.38559,-6.756455 1.43361,4.10138 0.1711,9.236875 -2.84211,12.341735 -2.04509,1.72788 -5.26263,2.140303 -7.673,0.97346 z m 45.37778,6.769783 c -1.86632,-3.41859 2.05875,-6.948303 0.49016,-10.174963 -2.03371,-2.92262 -3.61621,-6.073925 -5.21217,-9.237145 -1.99722,-3.8685 -7.30894,-1.12649 -7.50836,2.4897 -0.64587,2.58412 3.55472,7.454155 -0.64338,8.069225 -2.83686,-3.22495 -3.10032,-8.005265 -3.93731,-12.084685 0.93662,-3.9061 2.79193,2.90874 2.74473,1.00157 1.54843,-2.82037 4.87848,-4.44764 7.70334,-3.04124 2.61471,-3.58269 4.2321,3.84775 5.81864,5.66947 0.70332,2.15488 3.36599,7.497895 4.25369,2.51734 1.86825,-2.92207 2.72711,-9.15525 6.20179,-9.51147 0.63911,3.41826 -2.63574,6.34221 -3.49483,9.60735 -1.90513,4.550395 -3.73601,9.283318 -4.30528,14.173168 -0.28065,0.9122 -1.43271,1.25727 -2.11102,0.52168 z m -55.34701,-9.069423 c 1.83562,-2.52154 0.76974,-5.872975 1.02655,-8.814415 -0.28911,-3.45491 -7.51907,1.05223 -6.53053,4.281205 0.0327,2.56907 2.85829,5.63286 5.50398,4.53321 z m 3.45335,11.993823 c -2.49328,-2.5442 -0.50896,-6.99743 -3.25268,-9.340653 -3.29603,-0.57691 -7.12569,-1.78699 -8.0701,-5.47674 -1.13809,-5.089455 3.82633,-9.548955 8.6792,-9.684735 5.36082,-0.97681 3.31405,5.8957 3.24725,9.027305 -0.41434,4.40248 -0.10267,8.899493 1.15494,13.149413 1.52881,1.35424 -0.0268,3.38714 -1.75861,2.32541 z"
       id="path3261"
       inkscape:connector-curvature="0" />
    <path
       sodipodi:type="inkscape:offset"
       inkscape:radius="0"
       inkscape:original="M 291.9375 217.1875 C 281.81593 217.26369 271.70456 217.54184 261.59375 217.96875 C 255.16456 219.15482 248.04411 217.06687 242.125 220.40625 C 243.939 231.0642 246.71286 241.57037 250.0625 251.84375 C 263.5098 252.03987 276.97645 251.70798 290.375 253.09375 C 295.1206 253.49822 299.87548 254.53934 304.65625 254.1875 C 313.72338 254.28853 314.95391 244.07753 317.65625 237.59375 C 319.20058 231.1229 326.08295 224.48135 322.28125 217.75 C 312.16922 217.25577 302.05907 217.11131 291.9375 217.1875 z M 310.03125 220.375 C 313.28895 220.33646 316.37293 220.79232 318.59375 223.1875 C 316.57078 231.74702 312.01245 240.11073 309 248.59375 C 307.67111 249.83692 305.80824 250.34324 304.03125 250.46875 C 291.6493 249.41002 279.23566 248.37419 266.78125 248.21875 C 259.60952 248.64129 249.58378 249.30233 250.65625 239.09375 C 250.71869 233.52168 243.16756 225.07149 249.21875 221.4375 C 266.2807 221.92984 283.3178 220.61277 300.375 220.5 C 303.34434 220.93094 306.77355 220.41354 310.03125 220.375 z "
       style="fill:#b3b3b3"
       id="path4920"
       d="m 291.9375,217.1875 c -10.12157,0.0762 -20.23294,0.35434 -30.34375,0.78125 -6.42919,1.18607 -13.54964,-0.90188 -19.46875,2.4375 1.814,10.65795 4.58786,21.16412 7.9375,31.4375 13.4473,0.19612 26.91395,-0.13577 40.3125,1.25 4.7456,0.40447 9.50048,1.44559 14.28125,1.09375 9.06713,0.10103 10.29766,-10.10997 13,-16.59375 1.54433,-6.47085 8.4267,-13.1124 4.625,-19.84375 -10.11203,-0.49423 -20.22218,-0.63869 -30.34375,-0.5625 z m 18.09375,3.1875 c 3.2577,-0.0385 6.34168,0.41732 8.5625,2.8125 -2.02297,8.55952 -6.5813,16.92323 -9.59375,25.40625 -1.32889,1.24317 -3.19176,1.74949 -4.96875,1.875 -12.38195,-1.05873 -24.79559,-2.09456 -37.25,-2.25 -7.17173,0.42254 -17.19747,1.08358 -16.125,-9.125 0.0624,-5.57207 -7.48869,-14.02226 -1.4375,-17.65625 17.06195,0.49234 34.09905,-0.82473 51.15625,-0.9375 2.96934,0.43094 6.39855,-0.0865 9.65625,-0.125 z" />
    <path
       style="fill:#00aeef;fill-opacity:1"
       d="m 303.88584,298.42775 c 0.69313,-6.62811 0.6859,-13.29955 0.86641,-19.95399 -9.27212,-0.7466 -18.53742,-1.5823 -27.78853,-2.55642 -0.69228,7.93336 -1.37718,15.87267 -2.49121,23.76041 7.59701,0.27087 15.32879,0.0436 22.69093,2.24159 2.66776,0.60253 7.40016,0.53766 6.7224,-3.49159 z m -9.73052,7.14697 c -7.21344,-1.11592 -14.56502,-1.24265 -21.79874,-1.85994 -3.46299,-1.99404 -1.47546,-6.59817 -1.47997,-9.76206 0.593,-5.13281 1.58792,-10.23908 1.59723,-15.42294 -2.35481,-2.27286 -4.28395,-7.05864 0.90993,-6.86072 10.44051,0.48987 20.86315,1.66026 31.33407,1.57953 4.52913,-0.40324 4.46694,4.89952 4.26151,8.07196 -0.1757,8.02523 -0.59096,16.10217 -2.12959,23.99174 -1.88567,3.14506 -5.79469,0.79898 -8.62798,0.82695 -1.35531,-0.18939 -2.70938,-0.38799 -4.06646,-0.56452 z"
       id="path3153-9-6"
       inkscape:connector-curvature="0" />
    <path
       style="fill:#00aeef;fill-opacity:1"
       d="m 245.07944,300.11953 c 2.14685,-0.53172 6.10164,2.62318 7,0.2486 0,-8.00424 0,-16.00849 0,-24.01274 -6.90027,0.27038 -13.84371,-0.0215 -20.7064,0.85155 -2.63896,1.83813 -1.21007,5.88069 -2.21148,8.65849 -0.63623,4.73544 -1.32448,9.47907 -1.43201,14.26339 2.21042,2.16625 5.72502,0.32463 8.45984,0.66208 2.95945,-0.26745 5.91618,-0.61539 8.89005,-0.67137 z m -18.75,4.72546 c -3.40652,-0.63877 -3.4735,-4.64697 -2.93195,-7.3282 0.49004,-6.69913 2.0505,-13.33968 1.94497,-20.06481 -1.13949,-1.64009 -4.05738,-4.31037 -0.3363,-5.08304 4.42669,-1.23848 8.87151,1.1467 13.37304,0.47799 5.42262,-0.1572 10.81529,-1.06789 16.24985,-0.83083 2.10818,2.3178 0.73877,5.85436 1.41225,8.67337 0.25574,7.27428 0.74788,14.64267 -0.32255,21.86281 -1.15696,3.83775 -5.5245,2.81261 -8.51357,2.5959 -5.35765,-0.31965 -10.73401,-0.0138 -16.04716,0.65913 -1.65056,0.003 -3.31766,-0.28161 -4.82858,-0.96232 z"
       id="path3149-0-3"
       inkscape:connector-curvature="0" />
    <path
       style="fill:#000000"
       d="m 331.26657,194.62418 c 1.56531,-2.83573 5.69138,-0.33321 7.69538,-2.60955 -0.59165,-2.87361 -5.55519,-2.18276 -7.39039,-4.5229 -1.99402,-2.86097 3.44559,-4.19717 5.26098,-5.40216 2.9692,-0.37394 1.58324,2.48111 -0.52913,2.3315 -2.9547,0.7427 -2.54136,3.42553 0.4572,3.48231 2.87306,0.44499 7.66713,3.9525 3.26311,6.20998 -2.79538,0.55788 -6.0159,1.55049 -8.72322,0.74531 l -0.0339,-0.23449 0,0 z m -35.26311,-0.52424 c 2.08922,-2.35158 -0.75743,-5.53021 0.5771,-8.21996 -2.60406,0.41943 -5.77656,1.98769 -6.85121,4.7292 -1.9988,2.78596 1.12893,5.9399 4.09222,4.6415 0.82386,-0.13575 1.63894,-0.4968 2.18189,-1.15074 z m -7.42415,2.00198 c -2.49529,-1.91307 -1.76324,-5.79803 0.35854,-7.70112 1.28571,-2.81666 4.26578,-3.74615 7.05689,-4.32309 3.15616,-1.24383 3.93596,2.88564 3.61991,5.17822 -0.58526,2.24303 -1.12665,5.90224 1.86523,6.6217 -0.87859,2.41353 -3.86965,1.01328 -4.49923,-0.0352 -2.61437,1.3762 -5.8842,2.68953 -8.40134,0.25944 z m 21.16566,-5.49584 c 1.58429,-1.89604 0.33984,-7.20841 -2.59088,-4.6146 -2.87461,1.53341 -2.6413,7.07482 1.53499,5.28803 l 0.5807,-0.29156 0.47519,-0.38187 z m -4.66452,16.62014 c -3.24765,-0.0865 -2.29388,-5.51355 0.5357,-4.98467 -1.00497,2.28892 -0.29572,4.27924 2.5874,3.23523 4.21127,0.0955 5.27179,-3.82799 4.00872,-7.19001 -0.39556,-1.94722 0.1692,-8.07913 -3.05933,-4.94126 -2.50314,0.82833 -6.05518,-0.58936 -6.21598,-3.49981 0.53203,-3.4603 3.51743,-7.52976 7.45347,-6.53763 3.32324,0.96243 2.31548,5.39921 3.22221,8.05326 0.43524,3.76852 1.13934,7.55781 1.10351,11.34943 -0.48109,3.26706 -4.28918,4.61134 -7.17202,4.8121 -0.82973,0.0242 -1.66442,-0.0702 -2.46368,-0.29664 z m 17.01199,-15.69426 c 1.52707,-1.8139 0.65241,-6.11121 -0.42499,-7.02269 -1.89303,1.60869 -4.66725,5.16752 -2.87306,7.61477 1.03915,1.00123 2.52886,0.44472 3.29805,-0.59208 z m -0.95469,18.89009 c -2.9422,0.138 -3.9074,-6.43525 -1.36909,-5.64248 -0.55974,3.05132 3.70717,5.69538 4.59063,1.83068 1.12301,-4.40457 0.16749,-9.05129 -0.98969,-13.35252 -2.2395,1.55462 -5.6054,1.83838 -7.01076,-0.95052 -1.06547,-3.18148 1.24861,-6.34512 3.23028,-8.63536 2.03795,-2.61884 6.22122,-0.83057 5.50992,2.48259 -0.61894,6.60199 2.99174,12.97612 1.81699,19.5724 -0.76375,2.41305 -2.5879,6.5875 -5.77828,4.69521 z"
       id="path3279"
       inkscape:connector-curvature="0" />
    <path
       style="fill:#00aeef;fill-opacity:1"
       d="m 411.75921,298.85603 c 3.99614,-0.67058 3.43316,-5.32379 2.1223,-8.08119 -2.03445,-5.19249 -4.77365,-11.031 -10.36746,-13.10509 -2.76369,-2.08127 -5.59949,3.89684 -7.19665,-0.74418 -2.39767,-3.64872 -7.485,-1.45169 -10.28856,0.51519 -3.19281,2.17966 -6.27177,6.56779 -3.8743,10.37362 1.94325,4.29306 4.84419,8.40116 9.32527,10.30059 5.6809,2.4822 12.15921,2.06442 18.15503,1.18096 0.71191,-0.12748 1.42044,-0.27392 2.12437,-0.4399 z m -19.0149,4.13928 c -6.32502,-2.14833 -12.27841,-6.6305 -14.26855,-13.25622 -1.86075,-4.29866 -1.30721,-9.56711 2.06458,-12.95499 5.45573,-6.28033 14.93162,-6.62299 22.2833,-3.96444 5.22249,1.66128 9.24886,5.73277 11.61996,10.5793 2.18995,3.98515 4.36029,8.3186 4.41594,12.94696 -0.75493,4.96825 -6.13551,7.18118 -10.62536,7.35201 -5.12734,0.68984 -10.56464,1.30886 -15.48987,-0.70262 z"
       id="path3185-3-2"
       inkscape:connector-curvature="0" />
    <path
       style="fill:#b3b3b3"
       d="m 567.9673,251.39105 c 10.18663,-0.0714 20.40448,0.12427 30.53034,1.16422 4.3605,-1.18467 5.32682,-6.45346 7.41606,-9.87726 2.93012,-6.64945 6.22456,-13.4513 7.02347,-20.72321 -4.23745,-2.72181 -10.4434,-1.16755 -15.50807,-1.88843 -11.70703,-0.66288 -23.26612,1.74316 -34.9606,1.59815 -8.6895,0.18849 -17.42191,-0.16844 -26.07912,0.6267 -3.1977,3.68511 1.20169,9.72199 1.58205,14.21832 1.73525,4.76058 3.74727,9.42869 4.2513,14.4978 2.71721,3.16966 7.95515,-0.15885 11.74266,0.62276 4.66627,-0.12075 9.33483,-0.16691 14.00191,-0.23905 z m -28.56258,4.09593 c -2.31163,-3.84239 -0.70895,-8.73225 -3.00278,-12.64946 -3.13475,-6.67831 -3.27522,-14.21185 -5.71335,-21.08919 -2.2818,-0.71752 -8.39313,-5.07638 -2.95627,-5.22096 11.18239,2.05248 22.61839,1.57533 33.9367,1.54154 9.09015,-0.12828 18.14871,-0.89586 27.12339,-2.30075 6.50411,-0.33744 12.88568,1.53591 19.41159,1.37483 4.83043,-0.7452 12.66514,2.17118 8.30037,7.95582 -3.46839,10.7877 -7.70581,21.38079 -13.85647,30.94077 -3.67866,0.64283 -8.40855,-0.63435 -12.49455,-0.52963 -14.08522,-0.56968 -28.21695,-0.71384 -42.29486,-0.002 -2.78239,0.0382 -5.74839,0.82664 -8.45377,-0.021 z"
       id="path3199"
       inkscape:connector-curvature="0" />
    <path
       style="fill:#00aeef;fill-opacity:1"
       d="m 625.71255,305.98111 c 3.16446,1.33082 5.25534,-2.59536 2.78714,-4.77477 -2.81034,-6.19208 -5.62209,-12.67694 -10.47425,-17.56733 -2.37848,-1.63565 -6.32996,-6.30974 -8.09222,-1.80656 -2.7175,3.84295 -4.82869,8.05728 -7.10221,12.15677 -3.11533,4.11752 -6.51659,8.00873 -9.80026,11.99189 9.83506,0.36057 19.71874,1.33312 29.53096,0.0991 1.04926,-0.0591 2.10002,-0.0893 3.15084,-0.0991 z m -40.3383,4.43097 c 1.6931,-4.47842 5.41039,-7.77041 8.14318,-11.60552 4.36758,-5.35336 8.1149,-11.15992 11.80255,-16.98534 2.26802,-2.40458 3.41044,-5.90835 5.50478,-8.11317 2.96962,0.2926 5.23475,2.716 7.65772,4.27276 6.33101,4.86842 9.65674,12.38651 13.04024,19.3843 1.53506,3.48501 2.97931,7.06418 3.64887,10.81826 -0.88857,4.08538 -7.08355,1.65066 -10.16267,2.63009 -12.79935,0.3696 -25.63986,0.70758 -38.42456,-0.12253 -0.40829,-0.0693 -0.81331,-0.15986 -1.21011,-0.27885 z"
       id="path3109-5-8"
       inkscape:connector-curvature="0" />
    <path
       style="fill:#00aeef;fill-opacity:1"
       d="m 561.66834,304.87348 c -2.11048,-8.18891 -5.97783,-15.84852 -10.43307,-22.99432 -1.95322,-2.80485 -4.253,-5.34069 -6.43753,-7.96237 -5.60975,9.93474 -11.30159,19.83982 -17.26297,29.55929 1.37861,2.22514 5.36962,0.89996 7.81677,1.50791 8.45899,0.51356 16.99779,0.93611 25.30418,2.65301 2.41798,0.96857 1.03471,-1.70137 1.01262,-2.76352 z m -1.6185,7.06733 c -11.75565,-2.02252 -23.77829,-1.6286 -35.53703,-3.57026 -5.27724,-1.45409 0.46392,-7.08851 1.50367,-10.00131 3.50505,-5.71884 6.86023,-11.52298 10.00237,-17.44599 2.11286,-3.519 4.54009,-6.9038 5.94935,-10.79138 0.0909,-3.96795 4.72167,-0.80534 5.90304,0.94821 7.71372,7.36857 12.27195,17.25082 15.84505,27.13391 1.63817,4.40359 3.43691,8.83 4.26001,13.46177 -1.18061,2.70247 -5.77241,0.35608 -7.92646,0.26505 z"
       id="path3113-5-9"
       inkscape:connector-curvature="0" />
    <path
       style="fill:#b3b3b3"
       d="m 415.99076,249.51156 c 3.01245,-8.48302 7.57621,-16.8455 9.59918,-25.40502 -4.44163,-4.79036 -12.28228,-1.8101 -18.22097,-2.67198 -17.0572,0.11277 -34.09889,1.43157 -51.16084,0.93923 -6.05119,3.63399 1.4976,12.07892 1.43516,17.65099 -1.07247,10.20858 8.94759,9.56068 16.11932,9.13814 12.45441,0.15544 24.89457,1.16534 37.27652,2.22407 1.77699,-0.12551 3.62274,-0.63226 4.95163,-1.87543 z m -18.61209,4.50242 c -13.39855,-1.38577 -26.8857,-1.0563 -40.333,-1.25242 -3.34964,-10.27338 -6.11697,-20.75216 -7.93097,-31.41011 5.91911,-3.33938 13.03662,-1.2535 19.46581,-2.43957 20.22162,-0.85381 40.48507,-1.2259 60.70913,-0.23744 3.8017,6.73135 -3.07916,13.382 -4.62349,19.85285 -2.70234,6.48378 -3.95411,16.68377 -13.02124,16.58274 -4.78077,0.35184 -9.52064,-0.69158 -14.26624,-1.09605 z"
       id="path3223-1"
       inkscape:connector-curvature="0" />
    <path
       style="fill:#000000"
       d="m 344.01696,207.39061 c 1.12573,-1.5928 2.70907,-2.49698 4.01979,-3.81976 4.15971,-3.83084 8.32051,-7.72524 12.78713,-10.89058 3.23363,-2.09629 6.19327,-4.90666 9.33611,-7.24515 2.28672,-1.81479 4.66641,-3.42302 6.87497,-5.4127 1.32239,-0.83721 1.20372,0.98379 0.30059,1.71821 -0.77762,1.68478 -2.00577,1.71609 -3.19595,2.4391 -3.64944,2.57919 -6.94961,5.9677 -10.60116,8.5495 -4.79344,3.56002 -9.57729,7.18659 -14.045,11.46282 -1.42356,1.25239 -2.73593,2.72931 -4.1426,3.9907 -0.57119,0.41584 -1.69355,0.30421 -1.33388,-0.79214 z"
       id="path3189"
       inkscape:connector-curvature="0" />
    <path
       style="fill:#000000"
       d="m 543.50391,208.04861 c -1.12573,-1.5928 -2.70907,-2.49698 -4.01979,-3.81976 -4.15971,-3.83084 -8.32051,-7.72524 -12.78713,-10.89058 -3.23363,-2.09629 -6.19327,-4.90666 -9.33611,-7.24515 -2.28672,-1.81479 -4.66641,-3.42302 -6.87497,-5.4127 -1.32239,-0.83721 -1.20372,0.98379 -0.30059,1.71821 0.77762,1.68478 2.00577,1.71609 3.19595,2.4391 3.64944,2.57919 6.94961,5.9677 10.60116,8.5495 4.79344,3.56002 9.57729,7.18659 14.045,11.46282 1.42356,1.25239 2.73593,2.72931 4.1426,3.9907 0.57119,0.41584 1.69355,0.30421 1.33388,-0.79214 z"
       id="path3189-4"
       inkscape:connector-curvature="0" />
    <path
       style="fill:#00aeef;fill-opacity:1"
       d="m 267.38759,238.79721 c 0.26626,-2.5461 0.26348,-5.10885 0.33282,-7.66506 -3.56176,-0.2868 -7.1209,-0.60782 -10.67459,-0.98202 -0.26593,3.0475 -0.52903,6.09728 -0.95696,9.12725 2.91828,0.10405 5.88834,0.0168 8.71641,0.86108 1.02479,0.23145 2.84267,0.20653 2.58232,-1.34125 z m -3.73785,2.74541 c -2.77095,-0.42866 -5.59496,-0.47735 -8.37369,-0.71447 -1.33026,-0.76598 -0.56678,-2.5346 -0.56851,-3.74997 0.22779,-1.9717 0.60998,-3.9332 0.61355,-5.92451 -0.90457,-0.87309 -1.64562,-2.71148 0.34954,-2.63546 4.01058,0.18818 8.0143,0.63777 12.03656,0.60676 1.73981,-0.1549 1.71592,1.88208 1.63701,3.10074 -0.0675,3.08278 -0.22701,6.18543 -0.81806,9.2161 -0.72435,1.20814 -2.22595,0.30692 -3.31432,0.31766 -0.52063,-0.0728 -1.04077,-0.14904 -1.56208,-0.21685 z"
       id="path3153-7"
       inkscape:connector-curvature="0" />
    <path
       style="fill:#00aeef;fill-opacity:1"
       d="m 301.98225,238.37488 c 0.82468,-0.20426 2.34386,1.00766 2.68896,0.0955 0,-3.07472 0,-6.14944 0,-9.22417 -2.65065,0.10386 -5.31788,-0.008 -7.95409,0.32711 -1.01372,0.70609 -0.46483,2.25899 -0.84951,3.32605 -0.2444,1.81905 -0.50878,3.64125 -0.55009,5.47909 0.8491,0.83213 2.19919,0.1247 3.24973,0.25432 1.13684,-0.10273 2.27263,-0.23639 3.415,-0.25789 z m -7.20256,1.81522 c -1.30857,-0.24538 -1.3343,-1.78507 -1.12627,-2.81503 0.18824,-2.57338 0.78767,-5.12426 0.74713,-7.70763 -0.43772,-0.63002 -1.55859,-1.65577 -0.12918,-1.95258 1.70045,-0.47575 3.40787,0.44049 5.13707,0.18361 2.08303,-0.0604 4.15455,-0.41021 6.24217,-0.31915 0.80982,0.89035 0.28378,2.24887 0.54249,3.33176 0.0982,2.79432 0.28729,5.62478 -0.1239,8.39831 -0.44443,1.47422 -2.12216,1.08042 -3.27038,0.99718 -2.05807,-0.12279 -4.12332,-0.005 -6.1643,0.25319 -0.63404,10e-4 -1.27443,-0.10817 -1.85483,-0.36966 z"
       id="path3149-7"
       inkscape:connector-curvature="0" />
    <path
       style="fill:#ff0000"
       d="m 287.71921,234.355 c 0.0361,-1.50798 0.0722,-3.01596 0.10833,-4.52394 -3.78554,0.0709 -7.57108,0.14182 -11.35662,0.21274 -0.15341,2.68058 -0.36495,5.35851 -0.43937,8.04306 1.54627,0.41324 3.18221,0.1048 4.75812,0.3511 2.07452,0.21603 4.13997,0.65505 6.23134,0.48651 1.28441,-0.82933 0.3496,-3.13042 0.6982,-4.56947 l 0,0 z m -5.1021,6.00994 c -2.5259,-0.28397 -5.07339,-0.52176 -7.61493,-0.31971 -1.61593,-0.56376 -0.56036,-2.58874 -0.56792,-3.83278 0.23379,-1.67332 0.47381,-3.36174 0.36975,-5.05561 -0.64012,-0.67114 -3.3437,-0.85531 -1.57175,-2.08867 1.90265,-0.70498 3.99359,-0.68326 6.00269,-0.75649 2.81663,-0.045 5.64818,0.0781 8.44812,-0.30141 1.47481,-1.1806 2.28849,0.86688 1.87773,2.1125 -0.0486,3.07774 -0.0317,6.19393 -0.62089,9.22513 -0.1861,2.02147 -2.41255,1.45172 -3.80565,1.29274 -0.8398,-0.0849 -1.67861,-0.17927 -2.51715,-0.2757 z"
       id="path3133-5"
       inkscape:connector-curvature="0" />
    <path
       style="fill:#00aeef;fill-opacity:1"
       d="m 395.86274,240.28027 c 1.72145,-0.28887 1.47893,-2.29337 0.91424,-3.4812 -0.8764,-2.23681 -2.05639,-4.75191 -4.46607,-5.64539 -1.19054,-0.89656 -2.41214,1.67868 -3.10016,-0.32058 -1.03287,-1.57178 -3.22438,-0.62535 -4.43209,0.22194 -1.37539,0.93895 -2.70174,2.82926 -1.66897,4.46873 0.83712,1.84936 2.08678,3.61903 4.01713,4.43727 2.44721,1.06928 5.23792,0.8893 7.82078,0.50873 0.30669,-0.0549 0.61191,-0.118 0.91514,-0.1895 z m -8.1912,1.78311 c -2.72468,-0.92545 -5.28927,-2.85627 -6.14658,-5.71049 -0.80157,-1.85177 -0.56311,-4.1213 0.88938,-5.58072 2.35021,-2.70543 6.43221,-2.85304 9.59916,-1.7078 2.24973,0.71565 3.9842,2.46956 5.00562,4.55733 0.94338,1.71672 1.87832,3.58347 1.90229,5.57727 -0.32521,2.14021 -2.64305,3.09349 -4.57718,3.16708 -2.20874,0.29717 -4.55101,0.56383 -6.67269,-0.30267 z"
       id="path3185-1"
       inkscape:connector-curvature="0" />
    <path
       style="fill:#ff0000"
       d="m 375.7595,239.3761 c 1.26352,-0.95441 0.33508,-2.66034 3.2e-4,-3.84637 -0.57152,-1.84769 -2.11691,-3.07812 -3.76615,-3.93607 -1.52399,-0.97523 -3.37547,-1.56823 -5.17916,-1.10387 -1.93794,0.24489 -4.45292,0.33809 -5.44875,2.31466 -1.24417,2.58447 0.62145,5.63401 3.15192,6.53368 2.98626,1.05365 6.28301,1.38469 9.40717,0.81368 0.6582,-0.12057 1.32829,-0.31373 1.83465,-0.77571 z m -7.87872,2.67805 c -3.0178,-0.63968 -6.25644,-1.83207 -8.06564,-4.4714 -0.54357,-1.66965 -0.74515,-3.61162 -0.23479,-5.29945 1.38293,-2.5393 4.4926,-3.22289 7.12839,-3.62498 2.23075,-0.3558 4.56822,0.10776 6.39802,1.46575 2.45346,1.77083 4.57416,4.3872 5.00661,7.45702 0.31732,1.83419 -1.0136,3.55346 -2.78606,3.96971 -2.39954,0.67623 -4.97629,0.67434 -7.44653,0.50335 z"
       id="path3177-2"
       inkscape:connector-curvature="0" />
    <path
       style="fill:#4d4d4d"
       d="m 414.898,239.6854 c 1.83976,-1.52106 -8.4e-4,-4.33327 -1.707,-5.12983 -2.14359,-1.34892 -4.53723,-2.05604 -7.01968,-2.26665 -2.70535,-1.43721 -5.39915,1.7446 -3.94649,4.28346 1.5858,3.40997 5.8104,4.1506 9.18894,3.72888 1.16906,-0.14165 2.37027,-0.20327 3.48423,-0.61586 z m -8.47759,2.02618 c -3.15353,-0.84598 -6.55737,-3.44019 -6.28002,-7.03886 0.50514,-3.39448 3.99677,-5.63646 7.22262,-5.87363 2.92004,0.295 4.9059,2.79884 7.05648,4.53313 1.59559,1.62632 4.41244,3.92033 2.85193,6.42722 -1.76848,2.37711 -5.18417,2.35054 -7.87084,2.38417 -1.00014,-0.0631 -2.01212,-0.16155 -2.98017,-0.43203 z"
       id="path3173-6"
       inkscape:connector-curvature="0" />
    <path
       style="fill:#4d4d4d"
       d="m 577.52785,241.74131 c -1.60172,-3.59513 -4.10246,-6.82898 -7.20147,-9.24154 -1.33529,0.39192 -1.71913,2.20148 -2.76713,3.11831 -1.14123,1.46837 -2.35718,2.87637 -3.57756,4.27894 0.56269,1.64129 3.12127,0.91021 4.50763,1.52843 2.95547,0.48769 5.90873,1.16573 8.89716,1.33888 0.459,-0.12673 0.31866,-0.7256 0.14137,-1.02302 z m -4.46026,2.19535 c -3.71836,-0.67972 -7.46973,-1.24394 -11.10581,-2.30186 -1.55955,-1.13344 0.97532,-2.47438 1.58009,-3.46312 1.87353,-2.12719 3.76244,-4.3434 4.92944,-6.94568 -0.0718,-1.5871 1.50449,-2.38126 2.4424,-0.87709 3.23929,3.49896 6.66063,7.04048 8.44345,11.54856 0.97842,1.21167 0.184,3.06578 -1.5046,2.43058 -1.60062,-0.0356 -3.20272,-0.13912 -4.78497,-0.39139 z"
       id="path3121-6"
       inkscape:connector-curvature="0" />
    <path
       style="fill:#00aeef;fill-opacity:1"
       d="m 557.55192,240.7135 c -0.82426,-3.19822 -2.33468,-6.18973 -4.0747,-8.98057 -0.76284,-1.09545 -1.66104,-2.08584 -2.51422,-3.10975 -2.19092,3.88007 -4.4139,7.74857 -6.74216,11.54456 0.53842,0.86905 2.09714,0.35149 3.05288,0.58893 3.30372,0.20057 6.6386,0.3656 9.88271,1.03614 0.94436,0.37829 0.40412,-0.66448 0.39549,-1.07931 z m -0.63212,2.76019 c -4.59124,-0.78991 -9.28675,-0.63605 -13.87921,-1.39439 -2.06105,-0.5679 0.18119,-2.76846 0.58728,-3.90607 1.36891,-2.23352 2.6793,-4.50037 3.90648,-6.81364 0.82519,-1.37436 1.77316,-2.69632 2.32355,-4.21463 0.0355,-1.54971 1.84408,-0.31453 2.30548,0.37033 3.01263,2.87783 4.79288,6.73741 6.18837,10.59731 0.6398,1.71985 1.34231,3.44861 1.66378,5.25758 -0.4611,1.05546 -2.25445,0.13906 -3.09573,0.10351 z"
       id="path3113-54"
       inkscape:connector-curvature="0" />
    <path
       style="fill:#00aeef;fill-opacity:1"
       d="m 597.95713,241.68951 c 1.23589,0.51976 2.0525,-1.01364 1.08853,-1.86482 -1.09759,-2.41836 -2.19574,-4.95105 -4.09078,-6.86102 -0.92893,-0.63882 -2.4722,-2.46431 -3.16047,-0.70557 -1.06134,1.50089 -1.88587,3.14682 -2.77381,4.7479 -1.21671,1.60812 -2.54509,3.12786 -3.82755,4.68351 3.84114,0.14082 7.70127,0.52066 11.53349,0.0387 0.4098,-0.0231 0.82018,-0.0349 1.23059,-0.0387 z m -15.75438,1.73054 c 0.66126,-1.74908 2.11307,-3.03478 3.18037,-4.53261 1.70579,-2.09078 3.16933,-4.35857 4.60956,-6.63372 0.88579,-0.93913 1.33197,-2.30755 2.14993,-3.16865 1.1598,0.11428 2.04446,1.06075 2.99077,1.66875 2.47261,1.9014 3.7715,4.83763 5.09294,7.57066 0.59953,1.36109 1.16359,2.75895 1.42509,4.22513 -0.34703,1.59557 -2.76652,0.64468 -3.96909,1.0272 -4.99886,0.14435 -10.0138,0.27635 -15.00695,-0.0478 -0.15946,-0.027 -0.31764,-0.0624 -0.47262,-0.1089 z"
       id="path3109-1"
       inkscape:connector-curvature="0" />
    <path
       style="fill:#000000"
       d="m 409.43573,56.393448 c -3.20659,-1.15883 -0.9529,-4.589956 1.25943,-1.927787 2.00221,0.706337 3.34633,4.121167 0.0798,2.644987 l -0.63084,-0.31231 -0.7084,-0.40489 0,0 z m 68.06208,6.25416 c 2.11693,-0.92354 -4.00849,-0.6223 -4.78268,0.40255 -2.86838,1.90358 4.94076,-0.54666 4.78268,-0.40255 z m -16.86898,9.87268 c 0.10684,-3.57255 -3.88675,-8.15447 -1.47504,-11.10366 2.28391,2.45327 3.85528,-3.80638 7.3484,-1.84528 3.28971,1.61941 6.32068,1.57 9.66538,0 3.56654,-0.75743 8.38845,3.49965 2.82787,4.82882 -2.03624,1.40088 -10.20398,1.06335 -5.08629,4.30577 1.80865,2.01168 7.62916,0.68508 7.63869,2.94482 -4.54491,1.85562 -10.78977,-0.27892 -12.83006,-4.86226 -1.44166,-1.69079 3.2057,-5.17746 0.45955,-5.13191 -2.97136,-0.64649 -6.83245,0.63301 -6.82432,4.21609 -0.23796,1.71773 2.27531,8.42224 -1.72418,6.64761 z m 33.84476,-3.41651 c 4.29192,0.17206 2.71078,-8.02674 -1.2389,-6.64647 -3.16089,0.50465 -9.36129,4.14281 -4.67508,7.02221 1.91154,0.29326 4.15032,0.53171 5.91398,-0.37574 z m 5.0605,3.99391 c -1.32682,-2.2115 -2.89065,-3.84731 -5.32909,-1.74225 -3.60082,1.84792 -9.00372,0.38212 -10.10019,-3.77715 0.38225,-4.8778 6.18782,-6.40343 10.06608,-7.72988 3.60938,-1.76934 -0.31452,-6.871647 0.7817,-10.222015 -0.67077,-2.566056 2.51665,-5.172904 2.56233,-1.21798 0.28642,7.041085 2.11943,13.903575 2.56287,20.922515 0.14053,1.39513 3.18516,5.55157 -0.5437,3.76676 z m -51.55945,-7.95509 c 3.15882,-2.35527 -4.17005,-1.70015 -4.57165,0.63445 -1.47993,1.6855 4.04884,-0.58367 4.57165,-0.63445 z m -1.80519,7.60844 c -2.87517,-1.3172 -7.71381,-5.4265 -4.60419,-8.63716 2.10269,-1.6824 4.73669,-2.43773 7.15042,-3.55468 1.95802,1.33903 5.56729,3.74377 2.09521,5.73958 -1.97006,1.60526 -4.53223,1.86641 -6.94432,2.24868 1.82727,1.8891 4.38068,2.75505 7.00337,2.52341 2.376,-0.45248 7.05311,2.44112 2.07912,2.44551 -2.2724,0.0538 -4.5984,-0.0836 -6.77961,-0.76534 z m -25.65437,0.0362 c -1.53373,-6.6842 -1.42174,-13.67839 -3.49627,-20.261823 -1.16945,-1.887815 0.23923,-7.811557 1.86339,-3.440202 1.13222,4.254618 2.29648,8.504785 3.09976,12.830115 1.83935,-0.0739 4.52865,-0.73919 6.80807,-0.49866 1.13394,-0.27795 0.71401,-2.49596 1.24775,-3.52327 -0.35847,-2.01357 2.82687,-5.382455 2.5666,-1.64581 -0.13491,1.94145 -0.37821,3.87326 -0.56915,5.80968 2.02039,0.10753 4.22251,-0.34733 6.06675,0.64179 -0.94452,3.88791 -8.67144,-1.09021 -7.3062,4.02315 -0.33206,4.79362 4.21962,4.58849 7.59977,4.02217 2.85669,1.15988 -3.26378,4.40202 -5.0988,2.98567 -3.99872,-0.12264 -5.29261,-4.96253 -4.91678,-8.24904 0.90978,-2.00046 -1.3321,-1.36708 -2.57352,-1.56981 -1.25902,0.0704 -3.18201,-0.49887 -4.02231,-0.0251 0.53201,3.07685 -0.0631,6.78193 2.2268,9.17657 -0.0201,1.87988 -3.21586,1.25922 -3.49586,-0.27547 z m -20.14043,3.63103 c -0.63402,-3.68404 -0.35657,-7.48625 -1.19709,-11.15802 -2.31108,-0.13673 -4.77051,0.38386 -6.94969,-0.54251 -1.61144,-3.26816 3.79564,-1.99887 5.73766,-1.78597 2.03458,0.93456 1.24649,-1.3388 1.37967,-2.56515 0.0703,-4.72865 1.02566,-9.694353 3.66501,-13.677129 1.80885,-2.398742 9.05838,-1.142408 6.48896,2.232565 -2.06295,-1.001248 -4.513,-2.638881 -5.42255,0.993591 -1.9954,4.065686 -2.31057,8.664103 -1.84874,13.102513 3.33866,0 6.67731,0 10.01597,0 0.20831,3.06925 0.32061,6.20694 1.51571,9.07971 -0.40009,4.57097 -4.13026,0.0427 -3.58248,-2.51179 -0.62574,-1.25273 0.0844,-4.23091 -1.12158,-4.65965 -2.28774,0.36843 -4.57549,0.73686 -6.86323,1.1053 0.23857,3.6296 0.8432,7.26586 0.5873,10.90311 -0.58638,0.92997 -2.10444,0.42111 -2.40492,-0.51657 z"
       id="path3229"
       inkscape:connector-curvature="0" />
    <path
       sodipodi:type="inkscape:offset"
       inkscape:radius="0.49828488"
       inkscape:original="M 319.1875 31.71875 C 319.12148 31.783598 319.08243 31.921684 319.03125 32.21875 C 318.96783 32.58663 318.85268 33.008552 318.75 33.125 C 318.37717 33.547696 318.15775 36.954337 318 44.5 C 317.8955 49.497049 317.74726 52.298099 317.59375 52.5 C 317.46368 52.671108 317.2707 53.609886 317.1875 54.59375 C 317.10429 55.577614 316.96072 56.587096 316.84375 56.84375 C 316.62014 57.334316 316.33451 59.709444 315.96875 64.25 C 315.81006 66.219642 315.83702 67.898865 316.03125 70.375 C 316.5755 77.31372 316.35141 82.599195 315.34375 87.8125 C 314.72116 91.033417 314.34238 100.55374 314.8125 100.96875 C 314.95971 101.09871 315.1086 102.21186 315.1875 103.71875 C 315.26759 105.24882 315.43175 106.38565 315.59375 106.59375 C 315.78145 106.83497 315.861 108.02643 315.875 110.53125 C 315.88888 112.99915 315.97456 114.20313 316.15625 114.4375 C 316.46353 114.83392 316.49523 115.50377 316.21875 115.625 C 316.11334 115.67123 315.79078 115.56589 315.5 115.375 C 314.5836 114.77342 313.17021 114.03125 312.96875 114.03125 C 312.63059 114.03125 311.59375 113.05716 311.59375 112.75 C 311.59375 112.5586 311.44065 112.46875 311.15625 112.46875 C 310.59262 112.46875 310.57846 112.92489 311.125 113.5625 C 311.49993 113.99995 312.03781 114.30536 313.375 114.9375 C 313.64644 115.06583 314.17372 115.38973 314.5625 115.625 C 314.95129 115.86027 315.37995 116.03125 315.5 116.03125 C 315.62004 116.03125 315.81863 116.15292 315.96875 116.28125 C 316.11886 116.40959 316.3964 116.5 316.5625 116.5 C 316.72862 116.5 316.84375 116.40959 316.84375 116.28125 C 316.84375 116.15292 316.96512 116.03125 317.09375 116.03125 C 317.36563 116.03125 318.57192 115.44215 319.84375 114.65625 C 321.18696 113.82626 321.7437 113.49065 322.40625 113.1875 C 323.10044 112.86991 323.22022 112.18141 322.65625 111.78125 C 322.11573 111.39775 321.82613 111.46281 321.96875 111.96875 C 322.08117 112.36755 321.97058 112.51094 321.0625 113.03125 C 320.49481 113.35652 319.9978 113.6418 319.9375 113.6875 C 319.43357 114.06927 317.72005 114.9375 317.46875 114.9375 C 317.02726 114.9375 316.84375 113.67824 316.84375 110.0625 C 316.84375 108.08094 316.78739 107.02146 316.625 106.90625 C 316.4824 106.80507 316.29472 105.67156 316.1875 104.1875 C 316.08654 102.78987 315.89896 101.25179 315.78125 100.78125 C 315.27462 98.755676 315.96994 86.856737 316.625 86.28125 C 316.88829 86.049948 317.4163 80.417802 317.375 78.3125 C 317.35652 77.371409 317.23433 75.018705 317.09375 73.09375 C 316.811 69.221924 316.91433 60.45651 317.25 60.15625 C 317.36617 60.052323 317.5402 59.09953 317.625 58.03125 C 317.70987 56.962949 317.83741 55.99292 317.9375 55.90625 C 318.03756 55.819558 318.19465 54.881918 318.28125 53.8125 C 318.36778 52.743082 318.54372 51.78749 318.65625 51.6875 C 318.77396 51.582939 318.8882 48.263065 318.9375 43.875 C 318.98689 39.476365 319.12975 36.128903 319.25 35.96875 C 319.36471 35.815967 319.45405 35.314292 319.46875 34.84375 C 319.48347 34.373201 319.58233 33.524846 319.6875 32.96875 C 319.84985 32.110133 319.83677 31.921727 319.53125 31.75 C 319.37146 31.660192 319.25352 31.653902 319.1875 31.71875 z "
       style="fill:#000000"
       id="path4924"
       d="m 319.375,31.1875 c -0.16246,-0.01321 -0.38667,0.04549 -0.53125,0.1875 -0.24822,0.243815 -0.25851,0.436602 -0.3125,0.75 -0.0285,0.165614 -0.0517,0.359132 -0.0937,0.5 -0.042,0.140868 -0.14749,0.252639 -0.0625,0.15625 -0.1484,0.168251 -0.19895,0.319634 -0.25,0.5 -0.051,0.180366 -0.0853,0.395216 -0.125,0.65625 -0.0793,0.522069 -0.12641,1.224781 -0.1875,2.15625 -0.12218,1.862938 -0.23356,4.630158 -0.3125,8.40625 -0.0522,2.495546 -0.11865,4.440161 -0.1875,5.78125 -0.0344,0.670544 -0.0581,1.176928 -0.0937,1.53125 -0.0178,0.177161 -0.0475,0.322456 -0.0625,0.40625 -0.008,0.0419 0.002,0.05613 0,0.0625 -0.0698,0.116419 -0.12118,0.225145 -0.15625,0.34375 -0.0442,0.149545 -0.0854,0.330988 -0.125,0.53125 -0.0791,0.400524 -0.1443,0.895345 -0.1875,1.40625 -0.0408,0.482212 -0.0974,0.950362 -0.15625,1.34375 -0.0588,0.393388 -0.1681,0.74475 -0.15625,0.71875 -0.10224,0.224292 -0.12088,0.465939 -0.1875,0.84375 -0.0666,0.377811 -0.14554,0.883037 -0.21875,1.5 -0.14641,1.233927 -0.31684,2.976306 -0.5,5.25 -0.16087,1.996742 -0.13282,3.69744 0.0625,6.1875 0.54187,6.908424 0.31086,12.147292 -0.6875,17.3125 -0.32508,1.681788 -0.57317,4.869855 -0.6875,7.71875 -0.0572,1.424447 -0.0525,2.732055 -0.0312,3.75 0.0106,0.508972 0.0263,0.94901 0.0625,1.28125 0.0181,0.16612 0.0308,0.3084 0.0625,0.4375 0.0244,0.0996 0.0605,0.22005 0.15625,0.34375 0.005,0.0122 0.0168,0.0663 0.0312,0.125 0.0288,0.11737 0.0625,0.30047 0.0937,0.53125 0.0626,0.46155 0.11732,1.10025 0.15625,1.84375 0.0406,0.77635 0.11312,1.44559 0.1875,1.96875 0.0372,0.26158 0.0793,0.50211 0.125,0.6875 0.0457,0.18539 0.037,0.30664 0.1875,0.5 -0.0647,-0.0831 0.003,0.002 0.0312,0.15625 0.0284,0.15382 0.072,0.37764 0.0937,0.6875 0.0436,0.61972 0.0555,1.53367 0.0625,2.78125 0.007,1.23926 0.0464,2.15255 0.0937,2.8125 0.0237,0.32997 0.0544,0.59798 0.0937,0.8125 0.0393,0.21452 0.0271,0.38688 0.1875,0.59375 0.0463,0.0597 0.0666,0.15596 0.0937,0.25 -0.0226,-0.0132 -0.0405,-0.0168 -0.0625,-0.0312 -0.47786,-0.3137 -1.08767,-0.66988 -1.59375,-0.9375 -0.25304,-0.13381 -0.46604,-0.25798 -0.65625,-0.34375 -0.0951,-0.0429 -0.17051,-0.0652 -0.25,-0.0937 -0.0795,-0.0286 -0.13435,-0.0625 -0.3125,-0.0625 0.15468,0 0.0188,0.0123 -0.0937,-0.0625 -0.11258,-0.0748 -0.24099,-0.18718 -0.375,-0.3125 -0.13401,-0.12532 -0.26537,-0.27213 -0.34375,-0.375 -0.0784,-0.10287 -0.0625,-0.23479 -0.0625,-0.0312 0,-0.22856 -0.14356,-0.49921 -0.34375,-0.625 -0.20019,-0.12579 -0.39908,-0.15625 -0.59375,-0.15625 -0.20812,0 -0.43306,0.047 -0.625,0.1875 -0.19194,0.14046 -0.30612,0.37606 -0.3125,0.59375 -0.0128,0.43537 0.21839,0.76 0.53125,1.125 0.4536,0.52923 1.05967,0.86342 2.40625,1.5 0.20397,0.0964 0.76489,0.45067 1.15625,0.6875 0.21805,0.13195 0.4311,0.23057 0.625,0.3125 0.0969,0.041 0.1966,0.0673 0.28125,0.0937 0.0757,0.0236 0.13334,0.0577 0.25,0.0625 0.005,0.003 0.0254,-0.004 0.0312,0 0.0447,0.0268 0.11052,0.0859 0.15625,0.125 0.29283,0.25037 0.55934,0.34375 0.90625,0.34375 0.17346,0 0.34449,-0.0349 0.5,-0.15625 0.0968,-0.0755 0.14015,-0.21846 0.1875,-0.34375 0.1373,-0.0224 0.26686,-0.07 0.40625,-0.125 0.19152,-0.0755 0.40025,-0.15416 0.65625,-0.28125 0.512,-0.25418 1.13277,-0.59928 1.78125,-1 1.34193,-0.8292 1.89919,-1.17955 2.53125,-1.46875 0.46111,-0.21096 0.79475,-0.57665 0.875,-1.03125 0.0802,-0.4546 -0.15694,-0.93099 -0.5625,-1.21875 -0.15768,-0.11187 -0.31333,-0.18852 -0.46875,-0.25 -0.15542,-0.0615 -0.30573,-0.12079 -0.53125,-0.0625 -0.22552,0.0583 -0.42456,0.29736 -0.46875,0.5 -0.0442,0.20264 -0.0171,0.3597 0.0312,0.53125 0.0135,0.0478 -8.3e-4,0.0576 0,0.0625 -0.0489,0.0487 -0.26542,0.19566 -0.6875,0.4375 -0.28394,0.16269 -0.54527,0.31866 -0.75,0.4375 -0.10237,0.0594 -0.1826,0.11593 -0.25,0.15625 -0.0674,0.0403 -0.10871,0.034 -0.1875,0.0937 -0.18021,0.13652 -0.74153,0.46122 -1.25,0.71875 -0.25424,0.12876 -0.49861,0.2628 -0.6875,0.34375 -0.0391,0.0168 -0.0604,0.0179 -0.0937,0.0312 -0.0405,-0.11286 -0.053,-0.28487 -0.0937,-0.59375 -0.0947,-0.71833 -0.15625,-1.91931 -0.15625,-3.71875 0,-0.9955 -0.0267,-1.76328 -0.0625,-2.3125 -0.0179,-0.27461 -0.0273,-0.50425 -0.0625,-0.6875 -0.0176,-0.0916 -0.028,-0.16147 -0.0625,-0.25 -0.0193,-0.0497 -0.0828,-0.12735 -0.125,-0.1875 -0.004,-0.008 -0.0155,-0.0363 -0.0312,-0.0937 -0.0314,-0.11487 -0.0877,-0.30126 -0.125,-0.53125 -0.0747,-0.45999 -0.13474,-1.11347 -0.1875,-1.84375 -0.10226,-1.41567 -0.288,-2.90237 -0.4375,-3.5 -0.0923,-0.36896 -0.16039,-1.509818 -0.15625,-2.90625 0.004,-1.396432 0.0605,-3.076617 0.15625,-4.71875 0.0957,-1.642133 0.22763,-3.257235 0.375,-4.46875 0.0737,-0.605757 0.17443,-1.108864 0.25,-1.46875 0.0378,-0.179943 0.0638,-0.318944 0.0937,-0.40625 0.03,-0.08731 0.11076,-0.128553 0,-0.03125 0.18926,-0.16627 0.15952,-0.229302 0.1875,-0.3125 0.028,-0.0832 0.0404,-0.180661 0.0625,-0.28125 0.0442,-0.201178 0.0811,-0.446459 0.125,-0.75 0.0879,-0.607083 0.20083,-1.425401 0.28125,-2.28125 0.16084,-1.711698 0.27164,-3.615755 0.25,-4.71875 -0.019,-0.967899 -0.14005,-3.316549 -0.28125,-5.25 -0.13906,-1.904274 -0.18858,-5.078503 -0.15625,-7.78125 0.0162,-1.351373 0.042,-2.588075 0.0937,-3.5 0.0259,-0.455963 0.0619,-0.837961 0.0937,-1.09375 0.0159,-0.127894 0.0503,-0.198136 0.0625,-0.25 -0.004,0.01588 -0.009,0.01819 -0.0937,0.09375 0.07,-0.06258 0.0708,-0.08294 0.0937,-0.125 0.0205,-0.03759 0.049,-0.09296 0.0625,-0.125 0.0286,-0.0679 0.0419,-0.145667 0.0625,-0.21875 0.0412,-0.146166 0.0888,-0.328415 0.125,-0.53125 0.0724,-0.405669 0.1439,-0.919455 0.1875,-1.46875 0.0418,-0.526376 0.10354,-1.035493 0.15625,-1.40625 0.0264,-0.185378 0.0405,-0.310025 0.0625,-0.40625 0.011,-0.04811 0.0291,-0.08768 0.0312,-0.09375 0.002,-0.0061 0.0165,0.0024 -0.125,0.125 0.15611,-0.135253 0.16185,-0.184195 0.1875,-0.25 0.0256,-0.0658 0.0443,-0.1484 0.0625,-0.21875 0.0363,-0.140701 0.0609,-0.301286 0.0937,-0.5 0.0657,-0.397428 0.14319,-0.921559 0.1875,-1.46875 0.042,-0.519541 0.091,-1.010433 0.15625,-1.375 0.0326,-0.182283 0.0671,-0.342144 0.0937,-0.4375 0.0133,-0.04768 0.0278,-0.05427 0.0312,-0.0625 0.0242,-0.0396 0.0532,-0.100939 0.0625,-0.125 0.0168,-0.04344 0.0243,-0.06412 0.0312,-0.09375 0.0139,-0.05925 0.0228,-0.123539 0.0312,-0.1875 0.0169,-0.127921 0.0481,-0.297285 0.0625,-0.5 0.0288,-0.405431 0.0377,-0.957192 0.0625,-1.65625 0.0497,-1.398117 0.10032,-3.334306 0.125,-5.53125 0.0247,-2.195343 0.0684,-4.131673 0.125,-5.53125 0.0283,-0.699789 0.0635,-1.261842 0.0937,-1.65625 0.0151,-0.197204 0.018,-0.338867 0.0312,-0.4375 0.007,-0.04932 0.0288,-0.0827 0.0312,-0.09375 0.0964,-0.174299 0.12074,-0.343759 0.15625,-0.53125 0.0444,-0.234364 0.0856,-0.520013 0.0937,-0.78125 0.0131,-0.419568 0.12018,-1.260052 0.21875,-1.78125 0.0829,-0.438247 0.13022,-0.728164 0.0937,-1.03125 -0.0365,-0.303086 -0.28204,-0.596237 -0.5,-0.71875 -0.12121,-0.06812 -0.24379,-0.11179 -0.40625,-0.125 z"
       transform="matrix(1.3498472,0,0,1.7914702,227.34672,-21.891331)" />
    <path
       style="fill:#000000"
       d="m 848.409,566.56892 c -0.93959,-4.85485 4.69755,2.30639 0,0 z m -92.2415,17.80022 c 1.77806,-8.5208 -14.69201,-25.06361 -3.0723,-25.88517 3.00211,-5.34102 20.14194,-21.84406 24.02703,-10.15376 -17.0083,-0.95298 -18.93936,19.21551 -15.33127,31.51067 0.72851,3.53397 -2.11644,8.0693 -5.62346,4.52826 z m -84.72746,4.41789 c -11.70436,-13.00115 -10.61503,-31.99166 -13.6197,-48.27718 -2.65808,-6.17304 -1.72592,-34.03734 3.4965,-16.67292 3.42812,22.3222 3.5171,46.42167 15.6232,66.24703 -1.40993,1.59798 -4.2025,-0.48094 -5.5,-1.29693 z m -180.15083,-5.66102 c 13.99377,-11.94402 -7.94989,-29.86448 -19.62528,-26.38953 -6.12003,4.92443 -17.0549,15.65625 -7.10699,22.13691 7.29687,5.32071 18.34068,9.84765 26.73227,4.25262 z m -15.34917,7.29486 c -12.66074,-1.89955 -27.14891,-16.81489 -15.9467,-29.02444 6.56521,-13.35906 27.50663,-14.80023 33.99461,-1.92263 10.63608,7.87555 9.47201,24.21119 -2.20472,30.62217 -5.28023,0.37737 -10.58009,1.57255 -15.84319,0.3249 z m 92.38262,1.75297 c 3.4456,-8.99742 26.04212,-7.66738 29.89911,-2.19281 -9.06315,2.38003 -21.40127,3.37123 -29.89911,2.19281 z m 156.78076,-24.13918 c 9.77308,-12.3883 -21.12935,3.00353 -3.27002,1.06685 l 3.27002,-1.06683 0,-2e-5 z m 0.79784,25.34193 c -13.58745,-1.44787 -25.82379,-18.46531 -14.27878,-28.90236 5.49832,-16.3544 33.76649,-3.7039 17.35967,8.01985 -7.21219,3.72698 -23.48389,0.59576 -10.02026,10.86585 8.59677,9.14155 25.94213,6.3372 32.24749,3.39934 -4.89072,11.13044 -15.51142,9.60134 -25.30812,6.61732 z m -77.49904,-0.19373 c -1.48264,-9.47156 -10.86732,-27.99468 -2.42748,-33.1617 5.15044,9.63343 2.44677,25.55321 9.9653,31.457 0.75424,5.38537 -6.0298,7.12775 -7.53782,1.7047 z m -132.60612,1.91988 c -15.16452,-6.28663 13.72115,-26.13221 0.40165,-10.24012 2.04976,17.69168 26.69173,-8.96969 6.75455,-8.6545 -11.90729,-1.36434 -27.86557,-12.23355 -12.20579,-22.23203 8.45685,-7.43441 12.20838,5.70856 1.27361,5.66204 -7.23602,15.03183 29.43673,8.20506 24.81011,25.33989 -3.2604,7.14871 -12.89365,14.95849 -21.03413,10.12472 z m 177.8964,1.26136 c -5.56036,-11.07968 -3.09109,-28.71592 -18.20404,-30.38313 14.24121,-3.37197 -6.03323,-23.12283 7.01897,-29.36183 3.12555,5.69477 -0.50731,34.18266 16.13652,21.58183 9.35781,-5.76042 14.68051,9.13836 1.92255,5.82676 -19.74719,1.91226 0.14593,22.9302 -2.90409,34.13542 -1.43229,1.44405 -3.28488,-0.6842 -3.96991,-1.79905 z m -138.88209,1.52937 c -7.10897,-11.77825 -7.33959,-26.19676 -10.33994,-39.40796 -6.9299,1.81029 -26.21413,-1.1881 -10.98,-5.79097 12.46132,3.63494 10.06348,-7.54221 7.87868,-16.43817 -4.46978,-6.31243 0.71029,-25.87959 4.11377,-9.92169 0.50447,9.18044 2.37071,18.2057 3.83362,27.26447 9.06289,0.20985 17.11751,7.9047 2.60552,5.09332 -4.50441,11.18636 7.90299,28.87415 5.2118,40.75569 l -1.05119,-0.36347 -1.27226,-1.19122 0,0 z m 69.05669,21.58938 c -5.97046,-14.19214 -5.98049,-32.37027 -13.69035,-44.67304 -6.145,4.93134 -18.21341,2.87514 -7.2808,-4.36141 14.93467,-6.96247 -1.80245,-28.52483 7.36651,-41.29608 4.71751,-18.34984 31.16225,-11.38237 31.67758,5.18933 11.3609,12.90825 -9.97286,3.78842 -5.98439,-5.89439 -6.07847,-13.50222 -26.63651,-0.69833 -22.84334,13.79988 2.20287,7.44482 -2.42898,23.96667 7.70853,24.70503 7.94699,0.52243 22.06189,3.29144 6.15306,4.96589 -19.16587,-0.34502 0.3167,25.94518 -0.5872,37.27672 1.41879,2.76151 4.02254,17.60925 -2.5196,10.28807 z m -191.89188,1.20203 c -5.30682,-12.77188 -3.26663,-28.50091 -11.58302,-38.39837 10.23314,-6.13075 -3.3262,-29.69811 8.22389,-29.66095 3.45044,8.3607 -3.24394,28.89265 5.94332,30.72013 17.41803,-5.52245 18.03514,-33.32062 -2.3244,-34.73352 -7.92052,-3.30101 -16.41267,1.39261 -18.3599,5.54569 -7.65071,-16.73538 24.59769,-12.59976 31.78056,-4.73851 15.21677,11.26187 5.67957,34.92175 -10.21563,39.90056 -10.20637,3.51313 9.14937,35.9469 -3.46482,31.36497 z"
       id="path5349"
       inkscape:connector-curvature="0" />
    <path
       id="path5285"
       style="fill:#000000"
       d="m 205.83077,254.71743 c -3.3787,-0.0977 -3.50852,-9.08968 -1.12994,-3.59453 7.51417,4.86719 6.52076,-6.39324 4.79777,-10.78774 -1.77167,-4.64517 -1.75849,-14.65199 -8.54804,-9.98466 -8.08656,0.57058 -5.84351,-10.40587 -0.36481,-12.66223 4.27157,-2.58678 3.43724,2.41456 2.79803,2.57754 3.64601,1.01945 3.9009,8.78971 6.15245,12.53724 1.68414,6.2772 4.02783,12.85725 3.0338,19.41264 -0.82965,2.94243 -4.34141,2.73061 -6.73926,2.50174 z m -2.07703,-27.27749 c 0.72319,-3.67875 -1.96006,-11.72155 -5.16919,-4.8199 -3.01812,4.61916 0.7833,7.15413 5.16919,4.8199 z m -14.78032,25.4955 c -2.94337,0.62892 -7.85239,-5.71202 -4.18799,-6.97141 0.56847,7.40987 14.4836,5.06197 10.62808,-2.92242 -1.56886,-3.62661 -1.28502,-15.83415 -6.47638,-9.95658 -3.12343,0.72568 -5.74281,-0.44845 -7.41029,2.52302 -3.93716,-1.17264 -2.42962,-9.61079 -6.45484,-4.31194 -7.09955,2.62263 -7.7969,-8.42656 -3.24115,-10.75845 2.4372,-3.69857 8.31264,-4.24491 6.96808,1.67034 0.15575,2.61765 1.31207,11.74967 3.48634,9.75698 -3.09191,-5.6714 1.47976,-14.47413 8.36581,-13.3293 3.77283,3.59842 1.57506,11.35505 5.01605,16.08088 1.47969,5.36588 4.11852,12.01937 0.14295,16.91783 0.50806,1.63243 -5.53728,1.39439 -6.83666,1.30105 z m -0.23241,-22.03042 c 3.85322,-2.05355 0.72341,-14.70559 -3.54768,-8.05983 -3.12948,3.33652 -2.73951,10.9252 3.54768,8.05983 z m -15.38021,-1.80575 c 3.86153,-0.38593 4.01379,-7.69988 2.42277,-8.91172 -2.94289,0.6376 -7.95764,9.57472 -2.42277,8.91172 z M 83.081547,247.0795 c -1.72965,-4.79007 -2.73127,-9.34429 -3.25424,-13.41384 0.68258,-5.6103 -12.8377,-1.17198 -9.58005,-5.24751 2.37199,-0.90384 7.13872,1.11201 8.43306,-0.64605 -0.32683,-7.94115 -3.08917,-16.5291 0.62415,-24.04832 2.57775,-5.63316 10.48104,1.58412 7.76757,2.65344 -3.98812,-7.06657 -9.72295,1.80367 -7.73749,6.80465 1.02654,5.24319 -1.7789,16.73077 6.37726,15.66456 3.51799,1.06648 6.36348,-0.24091 6.29969,-3.40146 2.53907,2.28972 1.81059,10.53493 4.17357,11.77276 3.00219,-1.30417 -1.05217,5.99589 -2.09935,0.44948 -1.43506,-3.79641 -1.1493,-9.48294 -6.71557,-6.88678 -1.81386,0.75014 -6.70046,-1.41226 -5.67721,1.89138 0.13945,5.52385 2.57937,10.74524 3.17951,16.10394 -0.79965,0.63996 -1.48999,-1.29572 -1.7909,-1.69625 z m 21.923773,-7.33845 c -4.13145,-5.60741 -4.72575,-12.99546 -6.457753,-19.58338 -1.08116,-5.64255 -2.23384,-11.29318 -3.24791,-16.93181 3.18937,-3.20631 2.52504,6.61289 3.51934,8.84248 1.866003,8.62635 2.948753,17.61649 6.811573,25.64617 1.18529,0.98038 2.25685,-4.82424 2.122,0.18162 -0.0154,1.49561 -1.17939,3.22436 -2.74725,1.84492 z m 9.5416,-2.25856 c -1.68401,-2.34338 -1.18349,-7.5822 -3.95169,-8.43026 -2.83801,1.02522 -11.159193,-2.12231 -4.28231,-2.51231 3.8823,0.72746 6.07685,-0.6119 3.29609,-4.67015 -1.73975,-1.96392 -2.7695,-10.08494 0.0857,-3.94443 1.80249,5.46394 3.62102,10.45696 10.18566,10.09344 -2.35694,1.8262 -8.14138,-0.0984 -4.98097,4.87609 1.11524,0.9066 1.65812,9.40905 -0.35245,4.58762 z m 11.30196,0.0661 c -6.69094,-2.65281 -7.53942,-13.28994 1.33019,-12.76359 7.06113,1.32042 -0.66765,5.96394 -4.37996,5.41883 0.2121,6.62701 8.96146,6.46591 14.15541,5.45799 1.58345,1.418 -6.0955,2.82355 -7.95451,2.72547 -1.09451,-0.0415 -2.18618,-0.31462 -3.15113,-0.8387 z m 0.46616,-10.32494 c -1.31811,-0.4459 -1.08814,0.7514 0,0 z m 13.57737,8.25311 c 0.38978,-4.10366 -5.54439,-7.62011 -4.54286,-10.3828 4.42456,5.16942 3.11962,-4.29265 8.1953,-2.42962 8.12848,2.4253 -5.36402,-0.0748 -3.20704,5.86723 -0.31699,1.59632 3.5774,8.63018 -0.4454,6.94519 z m 36.73732,-1.3661 c 0.39352,-1.4347 0.25157,1.75638 0,0 z m 40.82899,-0.70086 c -4.78566,-4.64294 11.24633,-0.76229 5.82059,-7.4059 -2.66774,-3.06535 -14.03289,-5.07274 -8.23502,-10.13258 3.96909,-1.71059 3.79493,2.36449 0.92298,2.85192 4.1988,2.56682 14.58146,6.75593 8.76481,12.78254 -1.84806,1.78403 -4.74992,2.94707 -7.27336,1.90402 z m -64.80036,-5.78017 c -2.69008,-4.29634 7.19672,-1.79069 9.77764,-1.93857 3.77316,0.0442 5.21059,1.59832 0.69177,1.68901 -3.47575,0.28607 -6.98624,0.45385 -10.46941,0.24956 z m -74.756463,-0.80216 c 0.39352,-1.43472 0.25157,1.75637 0,0 z m 10.85153,-9.18756 c -4.21998,-4.02953 4.5868,-0.50642 1.43548,0.79049 l -0.6338,-0.29688 -0.80168,-0.49361 0,0 z"
       inkscape:connector-curvature="0" />
    <path
       inkscape:connector-curvature="0"
       style="fill:#000000"
       d="m 916.44493,194.62705 c -0.33722,-0.54564 -0.15246,-1.78314 0.41058,-2.75 0.87815,-1.50795 1.02804,-1.36688 1.05412,0.99208 0.0318,2.87574 -0.43075,3.43088 -1.4647,1.75792 z"
       id="path5275" />
    <path
       inkscape:connector-curvature="0"
       id="path5349-9"
       style="fill:#000000"
       d="m 642.19349,249.70413 c -1.50679,-3.62637 -0.92751,-8.09238 -3.28881,-10.9026 2.90553,-1.74073 -0.94442,-8.43231 2.33504,-8.42176 0.9797,2.37389 -0.92106,8.20361 1.68751,8.72249 4.94557,-1.56801 5.12079,-9.46086 -0.65998,-9.86203 -2.2489,-0.93727 -4.66011,0.39541 -5.213,1.57461 -2.1723,-4.75174 6.98412,-3.5775 9.02359,-1.34542 4.32056,3.19762 1.61262,9.91547 -2.90057,11.32913 -2.89794,0.99749 2.59782,10.20654 -0.98378,8.90558 z m 54.48464,-0.3413 c -1.69521,-4.02963 -1.69806,-9.19102 -3.88715,-12.68419 -1.74478,1.40017 -5.17141,0.81635 -2.06727,-1.23836 4.24046,-1.97688 -0.51178,-8.09917 2.09161,-11.72536 1.33946,-5.21015 8.84802,-3.23185 8.99434,1.47342 3.22574,3.6651 -2.83164,1.07566 -1.69917,-1.67362 -1.72589,-3.83374 -7.56302,-0.19828 -6.486,3.91826 0.62547,2.11384 -0.68968,6.80496 2.18871,7.0146 2.25642,0.14834 6.26412,0.93456 1.74706,1.40999 -5.44184,-0.098 0.0899,7.36672 -0.16672,10.58413 0.40284,0.78409 1.14213,4.99987 -0.71541,2.92113 z m -19.60755,-6.12996 c -2.01847,-3.34425 -2.08395,-7.43815 -2.93585,-11.18926 -1.96764,0.514 -7.44309,-0.33734 -3.1176,-1.64426 3.53819,1.03209 2.85736,-2.14148 2.23703,-4.66735 -1.26913,-1.79232 0.20167,-7.3481 1.16803,-2.81711 0.14324,2.60664 0.67313,5.16922 1.0885,7.74132 2.57326,0.0596 4.86025,2.24441 0.7398,1.44616 -1.27896,3.17619 2.24392,8.19836 1.4798,11.57193 l -0.29847,-0.1032 -0.36124,-0.33823 0,0 z m 39.43337,-0.43424 c -1.57878,-3.1459 -0.87767,-8.15343 -5.16875,-8.6268 4.04356,-0.95742 -1.71304,-6.56536 1.99292,-8.33683 0.88745,1.61694 -0.14404,9.70562 4.58171,6.12782 2.657,-1.63558 4.1683,2.59469 0.54588,1.65441 -5.6069,0.54296 0.0415,6.51067 -0.82457,9.69221 -0.40668,0.41002 -0.93269,-0.19426 -1.12719,-0.51081 z m -50.51086,-0.35814 c -4.30572,-1.78499 3.8959,-7.41982 0.11404,-2.90752 0.582,5.02327 7.5787,-2.5468 1.91785,-2.45731 -3.38088,-0.38738 -7.91198,-3.47352 -3.46563,-6.31243 2.40118,-2.11088 3.46637,1.62085 0.36161,1.60765 -2.05455,4.26805 8.3581,2.3297 7.04444,7.19486 -0.92574,2.02976 -3.66095,4.24722 -5.97231,2.87475 z m 37.6514,-0.54512 c -0.42097,-2.6893 -3.0856,-7.94865 -0.68924,-9.41574 1.46239,2.73526 0.69472,7.25543 2.82949,8.93172 0.21415,1.52909 -1.71207,2.02381 -2.14025,0.48402 z m 22.00462,0.055 c -3.85794,-0.4111 -7.33225,-5.24293 -4.05423,-8.20637 1.56116,-4.64357 9.58746,-1.05166 4.929,2.27711 -2.04779,1.05822 -6.66788,0.16916 -2.84509,3.08519 2.44091,2.59559 7.36585,1.79934 9.15616,0.96519 -1.38864,3.16031 -4.40422,2.72614 -7.18584,1.87888 z m -0.22653,-7.19544 c 2.77491,-3.51746 -5.99935,0.8528 -0.92847,0.30291 l 0.92847,-0.3029 0,-1e-5 z m -44.51541,6.85393 c 0.97833,-2.55467 7.39425,-2.17703 8.48938,-0.62261 -2.57333,0.67578 -6.07655,0.95721 -8.48938,0.62261 z m -26.23057,-0.49772 c -3.59482,-0.53935 -7.7085,-4.77432 -4.52781,-8.24103 1.86409,-3.79309 7.81007,-4.20229 9.65223,-0.5459 3.01994,2.23614 2.68943,6.87438 -0.626,8.69468 -1.49923,0.10715 -3.00405,0.4465 -4.49842,0.0923 z m 4.35815,-2.07126 c 3.97331,-3.39131 -2.25724,-8.47955 -5.57228,-7.49289 -1.73769,1.39822 -4.84247,4.44534 -2.01792,6.28543 2.07183,1.51073 5.20755,2.79608 7.5902,1.20746 z m 51.15097,1.60735 c -3.32327,-3.69147 -3.01397,-9.08352 -3.8671,-13.70753 -0.75472,-1.75274 -0.49005,-9.66437 0.99278,-4.73401 0.97335,6.33803 0.99862,13.18069 4.43595,18.80979 -0.40033,0.45372 -1.19323,-0.13656 -1.56163,-0.36825 z m 24.05701,-1.25438 c 0.50485,-2.41935 -4.17156,-7.11642 -0.87233,-7.34969 0.8524,-1.51649 5.71898,-6.20227 6.82209,-2.88299 -4.82923,-0.27059 -5.37753,5.45593 -4.35307,8.94695 0.20685,1.00341 -0.60093,2.29115 -1.59669,1.28573 z" />
    <path
       inkscape:connector-curvature="0"
       id="path5487-1"
       style="fill:#000000"
       d="m 592.25418,207.24408 c -3.0171,-4.01703 -4.2947,-9.20098 -6.81915,-13.32914 -1.85318,0.27335 -8.29771,1.05903 -4.5205,-1.83058 3.12498,-0.23169 5.11315,-0.92738 3.48854,-4.3402 0.30711,-2.39907 -2.8616,-8.23392 0.25899,-8.71163 1.79303,3.42347 1.43148,7.61493 2.74065,11.25619 1.17739,1.59876 4.91289,-0.0633 7.00325,0.59619 3.87571,-0.10602 1.88488,1.89864 -0.76443,1.64853 -3.56585,-0.11075 -6.97615,0.89585 -3.95444,4.78548 0.56326,3.23103 5.39231,7.53494 3.01092,10.20899 l -0.44383,-0.2839 0,7e-5 z m 11.20251,-0.93106 c -3.48426,-0.49386 -3.83395,-5.10203 0.15262,-4.22444 2.74593,0.30349 -2.97345,1.04497 0.60127,2.01243 3.73697,2.03273 10.55255,-2.18911 4.01029,-4.42042 -3.04967,-1.77808 -11.40203,-2.11746 -8.29572,-7.34072 1.09527,-3.61376 8.8917,-1.5792 5.46777,1.14576 -1.94739,-2.80586 -6.481,2.04713 -1.69971,2.24931 3.6538,1.27735 10.81679,2.78995 9.41373,7.94962 -1.74453,3.11736 -6.50078,3.43506 -9.65025,2.62846 z m -26.31435,1.00499 c -2.09655,-3.46563 -3.23454,-7.48757 -4.40172,-11.35678 0.90794,-4.76107 3.62751,2.01311 3.67314,3.97814 0.058,2.35489 4.19745,6.95943 1.34361,7.83333 l -0.61503,-0.45469 0,0 z m -4.48482,-20.1898 c -2.58369,-0.80149 -1.49795,-4.82828 0.50446,-2.23114 0.64525,1.48477 3.14768,5.61207 -0.0632,2.63263 l -0.44119,-0.40149 z m -15.51776,19.03489 c -0.78133,-3.77499 -1.84677,-7.57049 -2.15766,-11.38362 -1.2991,-2.49058 -1.13829,-5.77252 -1.79748,-8.57676 -0.5534,-1.28006 0.11671,-4.58669 1.03612,-1.75054 1.30556,2.51744 0.50246,5.51601 1.60117,8.16385 0.67784,3.17939 1.56603,6.31324 1.9752,9.5508 1.2774,-2.75662 2.93102,-5.39347 5.07804,-7.54877 3.41518,0.21142 3.77176,5.10943 6.05566,7.17065 0.4704,1.88773 4.65181,3.83629 1.14181,4.88187 -1.90019,-0.96255 -2.87036,-4.83485 -4.01057,-4.90305 0.13867,-1.64834 -2.5914,-6.72221 -4.26898,-3.4492 -1.44349,2.26093 -3.1656,4.74971 -3.0393,7.64517 -0.098,1.78987 -1.36683,2.31907 -1.61401,0.1996 z" />
  </g>
</svg>
